M48
;DRILL file {Pcbnew (2013-07-07 BZR 4022)-stable} date 6/6/2016 3:41:13 PM
;FORMAT={-:-/ absolute / inch / decimal}
FMAT,2
INCH,TZ
T1C0.025
T2C0.032
T3C0.039
T4C0.055
T5C0.060
T6C0.091
T7C0.120
%
G90
G05
M72
T1
X3.45Y-2.15
X3.455Y-1.2
X4.05Y-1.275
T2
X4.15Y-1.45
X4.15Y-1.55
T3
X3.11Y-2.35
X3.21Y-2.35
X3.29Y-2.35
X3.39Y-2.35
X3.91Y-2.35
X4.01Y-2.35
X4.09Y-2.35
X4.19Y-2.35
T4
X2.95Y-1.15
X2.95Y-1.35
X2.95Y-1.75
X2.95Y-1.95
T5
X2.35Y-1.75
X2.35Y-1.95
T6
X2.97Y-2.455
X3.51Y-2.455
X3.77Y-2.455
X4.31Y-2.455
T7
X2.25Y-1.1
X2.25Y-2.6
X4.75Y-1.1
X4.75Y-2.6
T0
M30
