G04 (created by PCBNEW (2013-07-07 BZR 4022)-stable) date 6/6/2016 3:41:11 PM*
%MOIN*%
G04 Gerber Fmt 3.4, Leading zero omitted, Abs format*
%FSLAX34Y34*%
G01*
G70*
G90*
G04 APERTURE LIST*
%ADD10C,0.00590551*%
%ADD11C,0.011811*%
%ADD12C,0.005*%
%ADD13C,0.0039*%
%ADD14C,0.008*%
%ADD15C,0.003*%
%ADD16C,0.01*%
%ADD17C,0.006*%
%ADD18C,0.012*%
%ADD19C,0.015*%
%ADD20C,0.0043*%
%ADD21C,0.0035*%
%ADD22C,0.0047*%
G04 APERTURE END LIST*
G54D10*
G54D11*
X22209Y-22264D02*
X22659Y-22264D01*
X23250Y-22489D02*
X22912Y-22489D01*
X23081Y-22489D02*
X23081Y-21898D01*
X23025Y-21982D01*
X22968Y-22039D01*
X22912Y-22067D01*
X23474Y-21954D02*
X23503Y-21926D01*
X23559Y-21898D01*
X23699Y-21898D01*
X23756Y-21926D01*
X23784Y-21954D01*
X23812Y-22010D01*
X23812Y-22067D01*
X23784Y-22151D01*
X23446Y-22489D01*
X23812Y-22489D01*
X23981Y-21898D02*
X24178Y-22489D01*
X24374Y-21898D01*
X22209Y-14514D02*
X22659Y-14514D01*
X22434Y-14739D02*
X22434Y-14289D01*
X23250Y-14739D02*
X22912Y-14739D01*
X23081Y-14739D02*
X23081Y-14148D01*
X23025Y-14232D01*
X22968Y-14289D01*
X22912Y-14317D01*
X23474Y-14204D02*
X23503Y-14176D01*
X23559Y-14148D01*
X23699Y-14148D01*
X23756Y-14176D01*
X23784Y-14204D01*
X23812Y-14260D01*
X23812Y-14317D01*
X23784Y-14401D01*
X23446Y-14739D01*
X23812Y-14739D01*
X23981Y-14148D02*
X24178Y-14739D01*
X24374Y-14148D01*
X45648Y-23449D02*
X45648Y-23336D01*
X45676Y-23280D01*
X45732Y-23224D01*
X45845Y-23196D01*
X46042Y-23196D01*
X46154Y-23224D01*
X46210Y-23280D01*
X46239Y-23336D01*
X46239Y-23449D01*
X46210Y-23505D01*
X46154Y-23561D01*
X46042Y-23589D01*
X45845Y-23589D01*
X45732Y-23561D01*
X45676Y-23505D01*
X45648Y-23449D01*
X46239Y-22943D02*
X45648Y-22943D01*
X46239Y-22605D02*
X45901Y-22858D01*
X45648Y-22605D02*
X45985Y-22943D01*
X46239Y-22352D02*
X45648Y-22352D01*
X46239Y-21284D02*
X45957Y-21480D01*
X46239Y-21621D02*
X45648Y-21621D01*
X45648Y-21396D01*
X45676Y-21340D01*
X45704Y-21312D01*
X45760Y-21284D01*
X45845Y-21284D01*
X45901Y-21312D01*
X45929Y-21340D01*
X45957Y-21396D01*
X45957Y-21621D01*
X45929Y-21030D02*
X45929Y-20834D01*
X46239Y-20749D02*
X46239Y-21030D01*
X45648Y-21030D01*
X45648Y-20749D01*
X45676Y-20187D02*
X45648Y-20243D01*
X45648Y-20327D01*
X45676Y-20412D01*
X45732Y-20468D01*
X45789Y-20496D01*
X45901Y-20524D01*
X45985Y-20524D01*
X46098Y-20496D01*
X46154Y-20468D01*
X46210Y-20412D01*
X46239Y-20327D01*
X46239Y-20271D01*
X46210Y-20187D01*
X46182Y-20159D01*
X45985Y-20159D01*
X45985Y-20271D01*
X46239Y-19906D02*
X45648Y-19906D01*
X45648Y-19512D02*
X45648Y-19399D01*
X45676Y-19343D01*
X45732Y-19287D01*
X45845Y-19259D01*
X46042Y-19259D01*
X46154Y-19287D01*
X46210Y-19343D01*
X46239Y-19399D01*
X46239Y-19512D01*
X46210Y-19568D01*
X46154Y-19624D01*
X46042Y-19652D01*
X45845Y-19652D01*
X45732Y-19624D01*
X45676Y-19568D01*
X45648Y-19512D01*
X46239Y-19006D02*
X45648Y-19006D01*
X46239Y-18668D01*
X45648Y-18668D01*
X46070Y-18415D02*
X46070Y-18134D01*
X46239Y-18471D02*
X45648Y-18275D01*
X46239Y-18078D01*
X46239Y-17600D02*
X46239Y-17881D01*
X45648Y-17881D01*
X46182Y-16615D02*
X46210Y-16643D01*
X46239Y-16728D01*
X46239Y-16784D01*
X46210Y-16868D01*
X46154Y-16925D01*
X46098Y-16953D01*
X45985Y-16981D01*
X45901Y-16981D01*
X45789Y-16953D01*
X45732Y-16925D01*
X45676Y-16868D01*
X45648Y-16784D01*
X45648Y-16728D01*
X45676Y-16643D01*
X45704Y-16615D01*
X45648Y-16250D02*
X45648Y-16137D01*
X45676Y-16081D01*
X45732Y-16025D01*
X45845Y-15997D01*
X46042Y-15997D01*
X46154Y-16025D01*
X46210Y-16081D01*
X46239Y-16137D01*
X46239Y-16250D01*
X46210Y-16306D01*
X46154Y-16362D01*
X46042Y-16390D01*
X45845Y-16390D01*
X45732Y-16362D01*
X45676Y-16306D01*
X45648Y-16250D01*
X45648Y-15744D02*
X46126Y-15744D01*
X46182Y-15715D01*
X46210Y-15687D01*
X46239Y-15631D01*
X46239Y-15519D01*
X46210Y-15462D01*
X46182Y-15434D01*
X46126Y-15406D01*
X45648Y-15406D01*
X46239Y-15125D02*
X45648Y-15125D01*
X46239Y-14787D01*
X45648Y-14787D01*
X46182Y-14169D02*
X46210Y-14197D01*
X46239Y-14281D01*
X46239Y-14338D01*
X46210Y-14422D01*
X46154Y-14478D01*
X46098Y-14506D01*
X45985Y-14534D01*
X45901Y-14534D01*
X45789Y-14506D01*
X45732Y-14478D01*
X45676Y-14422D01*
X45648Y-14338D01*
X45648Y-14281D01*
X45676Y-14197D01*
X45704Y-14169D01*
X46239Y-13916D02*
X45648Y-13916D01*
X46239Y-13353D02*
X46239Y-13634D01*
X45648Y-13634D01*
X47183Y-23379D02*
X47183Y-23716D01*
X47183Y-23547D02*
X46593Y-23547D01*
X46677Y-23604D01*
X46733Y-23660D01*
X46762Y-23716D01*
X46649Y-23154D02*
X46621Y-23125D01*
X46593Y-23069D01*
X46593Y-22929D01*
X46621Y-22872D01*
X46649Y-22844D01*
X46705Y-22816D01*
X46762Y-22816D01*
X46846Y-22844D01*
X47183Y-23182D01*
X47183Y-22816D01*
X46593Y-22647D02*
X47183Y-22451D01*
X46593Y-22254D01*
X46790Y-21691D02*
X46790Y-21466D01*
X46593Y-21607D02*
X47099Y-21607D01*
X47155Y-21579D01*
X47183Y-21523D01*
X47183Y-21466D01*
X47183Y-21185D02*
X47155Y-21241D01*
X47127Y-21269D01*
X47071Y-21298D01*
X46902Y-21298D01*
X46846Y-21269D01*
X46818Y-21241D01*
X46790Y-21185D01*
X46790Y-21101D01*
X46818Y-21044D01*
X46846Y-21016D01*
X46902Y-20988D01*
X47071Y-20988D01*
X47127Y-21016D01*
X47155Y-21044D01*
X47183Y-21101D01*
X47183Y-21185D01*
X46593Y-20285D02*
X47071Y-20285D01*
X47127Y-20257D01*
X47155Y-20229D01*
X47183Y-20173D01*
X47183Y-20060D01*
X47155Y-20004D01*
X47127Y-19976D01*
X47071Y-19948D01*
X46593Y-19948D01*
X47155Y-19695D02*
X47183Y-19610D01*
X47183Y-19470D01*
X47155Y-19413D01*
X47127Y-19385D01*
X47071Y-19357D01*
X47015Y-19357D01*
X46958Y-19385D01*
X46930Y-19413D01*
X46902Y-19470D01*
X46874Y-19582D01*
X46846Y-19638D01*
X46818Y-19667D01*
X46762Y-19695D01*
X46705Y-19695D01*
X46649Y-19667D01*
X46621Y-19638D01*
X46593Y-19582D01*
X46593Y-19442D01*
X46621Y-19357D01*
X46874Y-18907D02*
X46902Y-18823D01*
X46930Y-18795D01*
X46987Y-18767D01*
X47071Y-18767D01*
X47127Y-18795D01*
X47155Y-18823D01*
X47183Y-18879D01*
X47183Y-19104D01*
X46593Y-19104D01*
X46593Y-18907D01*
X46621Y-18851D01*
X46649Y-18823D01*
X46705Y-18795D01*
X46762Y-18795D01*
X46818Y-18823D01*
X46846Y-18851D01*
X46874Y-18907D01*
X46874Y-19104D01*
X47127Y-17726D02*
X47155Y-17754D01*
X47183Y-17839D01*
X47183Y-17895D01*
X47155Y-17979D01*
X47099Y-18035D01*
X47043Y-18064D01*
X46930Y-18092D01*
X46846Y-18092D01*
X46733Y-18064D01*
X46677Y-18035D01*
X46621Y-17979D01*
X46593Y-17895D01*
X46593Y-17839D01*
X46621Y-17754D01*
X46649Y-17726D01*
X46593Y-17361D02*
X46593Y-17248D01*
X46621Y-17192D01*
X46677Y-17136D01*
X46790Y-17107D01*
X46987Y-17107D01*
X47099Y-17136D01*
X47155Y-17192D01*
X47183Y-17248D01*
X47183Y-17361D01*
X47155Y-17417D01*
X47099Y-17473D01*
X46987Y-17501D01*
X46790Y-17501D01*
X46677Y-17473D01*
X46621Y-17417D01*
X46593Y-17361D01*
X47183Y-16854D02*
X46593Y-16854D01*
X47183Y-16517D01*
X46593Y-16517D01*
X46593Y-16320D02*
X47183Y-16123D01*
X46593Y-15926D01*
X46874Y-15730D02*
X46874Y-15533D01*
X47183Y-15448D02*
X47183Y-15730D01*
X46593Y-15730D01*
X46593Y-15448D01*
X47183Y-14858D02*
X46902Y-15055D01*
X47183Y-15195D02*
X46593Y-15195D01*
X46593Y-14970D01*
X46621Y-14914D01*
X46649Y-14886D01*
X46705Y-14858D01*
X46790Y-14858D01*
X46846Y-14886D01*
X46874Y-14914D01*
X46902Y-14970D01*
X46902Y-15195D01*
X46593Y-14689D02*
X46593Y-14352D01*
X47183Y-14520D02*
X46593Y-14520D01*
X46874Y-14155D02*
X46874Y-13958D01*
X47183Y-13874D02*
X47183Y-14155D01*
X46593Y-14155D01*
X46593Y-13874D01*
X47183Y-13283D02*
X46902Y-13480D01*
X47183Y-13620D02*
X46593Y-13620D01*
X46593Y-13395D01*
X46621Y-13339D01*
X46649Y-13311D01*
X46705Y-13283D01*
X46790Y-13283D01*
X46846Y-13311D01*
X46874Y-13339D01*
X46902Y-13395D01*
X46902Y-13620D01*
G54D12*
X35450Y-23050D02*
X35450Y-28600D01*
X29550Y-28600D02*
X29550Y-23050D01*
X35450Y-23050D02*
X29550Y-23050D01*
X35450Y-28600D02*
X29550Y-28600D01*
X43450Y-23050D02*
X43450Y-28600D01*
X37550Y-28600D02*
X37550Y-23050D01*
X43450Y-23050D02*
X37550Y-23050D01*
X43450Y-28600D02*
X37550Y-28600D01*
G54D13*
X42250Y-10850D02*
G75*
G03X42250Y-10850I-50J0D01*
G74*
G01*
X42200Y-11300D02*
X42200Y-10900D01*
X42200Y-10900D02*
X42800Y-10900D01*
X42800Y-10900D02*
X42800Y-11300D01*
X42800Y-11700D02*
X42800Y-12100D01*
X42800Y-12100D02*
X42200Y-12100D01*
X42200Y-12100D02*
X42200Y-11700D01*
X40250Y-10850D02*
G75*
G03X40250Y-10850I-50J0D01*
G74*
G01*
X40200Y-11300D02*
X40200Y-10900D01*
X40200Y-10900D02*
X40800Y-10900D01*
X40800Y-10900D02*
X40800Y-11300D01*
X40800Y-11700D02*
X40800Y-12100D01*
X40800Y-12100D02*
X40200Y-12100D01*
X40200Y-12100D02*
X40200Y-11700D01*
G54D14*
X40750Y-16120D02*
X42250Y-16120D01*
G54D15*
X42207Y-15100D02*
G75*
G03X42207Y-15100I-707J0D01*
G74*
G01*
G54D16*
X42250Y-16099D02*
G75*
G03X40749Y-16099I-750J999D01*
G74*
G01*
G54D17*
X41950Y-15100D02*
G75*
G03X41500Y-14650I-450J0D01*
G74*
G01*
X41050Y-15100D02*
G75*
G03X41500Y-15550I450J0D01*
G74*
G01*
X42150Y-15100D02*
G75*
G03X41500Y-14450I-650J0D01*
G74*
G01*
X40850Y-15100D02*
G75*
G03X41500Y-15750I650J0D01*
G74*
G01*
X42350Y-15100D02*
G75*
G03X41500Y-14250I-850J0D01*
G74*
G01*
X40650Y-15100D02*
G75*
G03X41500Y-15950I850J0D01*
G74*
G01*
G54D18*
X28500Y-20500D02*
X28500Y-10500D01*
X28500Y-10500D02*
X30500Y-10500D01*
X30500Y-10500D02*
X30500Y-20500D01*
X30500Y-20500D02*
X28500Y-20500D01*
X28500Y-17500D02*
X30500Y-17500D01*
X28500Y-13500D02*
X30500Y-13500D01*
G54D12*
X37050Y-11400D02*
X38500Y-11400D01*
X38500Y-11400D02*
X38500Y-10600D01*
X38500Y-10600D02*
X37050Y-10600D01*
X37050Y-12400D02*
X38500Y-12400D01*
X38500Y-12400D02*
X38500Y-11600D01*
X38500Y-11600D02*
X37050Y-11600D01*
X37050Y-13400D02*
X38500Y-13400D01*
X38500Y-13400D02*
X38500Y-12600D01*
X38500Y-12600D02*
X37050Y-12600D01*
X37050Y-14100D02*
X37050Y-9900D01*
X37050Y-9900D02*
X33050Y-9900D01*
X33050Y-9900D02*
X33050Y-14100D01*
X33050Y-14100D02*
X37050Y-14100D01*
X34900Y-19900D02*
X34100Y-19900D01*
X33950Y-19850D02*
X35100Y-19850D01*
X35200Y-19800D02*
X33800Y-19800D01*
X33650Y-19750D02*
X35350Y-19750D01*
X35450Y-19700D02*
X33550Y-19700D01*
X33500Y-19650D02*
X35500Y-19650D01*
X36450Y-18000D02*
G75*
G03X36450Y-18000I-1950J0D01*
G74*
G01*
X32450Y-20050D02*
X36550Y-20050D01*
X36550Y-20050D02*
X36550Y-16250D01*
X36550Y-16250D02*
X36250Y-15950D01*
X36250Y-15950D02*
X32750Y-15950D01*
X32750Y-15950D02*
X32450Y-16250D01*
X32450Y-16250D02*
X32450Y-20050D01*
X34500Y-16200D02*
X34500Y-16500D01*
X34350Y-16350D02*
X34650Y-16350D01*
G54D18*
X22500Y-20500D02*
X22500Y-16500D01*
X22000Y-20500D02*
X25000Y-20500D01*
X25000Y-20500D02*
X25000Y-16500D01*
X25000Y-16500D02*
X22000Y-16500D01*
X22000Y-16500D02*
X22000Y-20500D01*
G54D19*
X23400Y-26000D02*
G75*
G03X23400Y-26000I-900J0D01*
G74*
G01*
X23400Y-11000D02*
G75*
G03X23400Y-11000I-900J0D01*
G74*
G01*
X48400Y-11000D02*
G75*
G03X48400Y-11000I-900J0D01*
G74*
G01*
X48400Y-26000D02*
G75*
G03X48400Y-26000I-900J0D01*
G74*
G01*
G54D18*
X31142Y-26700D02*
X31571Y-26700D01*
X31657Y-26728D01*
X31714Y-26785D01*
X31742Y-26871D01*
X31742Y-26928D01*
X31742Y-26100D02*
X31742Y-26442D01*
X31742Y-26271D02*
X31142Y-26271D01*
X31228Y-26328D01*
X31285Y-26385D01*
X31314Y-26442D01*
X33142Y-27514D02*
X33628Y-27514D01*
X33685Y-27485D01*
X33714Y-27457D01*
X33742Y-27400D01*
X33742Y-27285D01*
X33714Y-27228D01*
X33685Y-27200D01*
X33628Y-27171D01*
X33142Y-27171D01*
X33714Y-26914D02*
X33742Y-26828D01*
X33742Y-26685D01*
X33714Y-26628D01*
X33685Y-26600D01*
X33628Y-26571D01*
X33571Y-26571D01*
X33514Y-26600D01*
X33485Y-26628D01*
X33457Y-26685D01*
X33428Y-26800D01*
X33400Y-26857D01*
X33371Y-26885D01*
X33314Y-26914D01*
X33257Y-26914D01*
X33200Y-26885D01*
X33171Y-26857D01*
X33142Y-26800D01*
X33142Y-26657D01*
X33171Y-26571D01*
X33428Y-26114D02*
X33457Y-26028D01*
X33485Y-26000D01*
X33542Y-25971D01*
X33628Y-25971D01*
X33685Y-26000D01*
X33714Y-26028D01*
X33742Y-26085D01*
X33742Y-26314D01*
X33142Y-26314D01*
X33142Y-26114D01*
X33171Y-26057D01*
X33200Y-26028D01*
X33257Y-26000D01*
X33314Y-26000D01*
X33371Y-26028D01*
X33400Y-26057D01*
X33428Y-26114D01*
X33428Y-26314D01*
X33571Y-25742D02*
X33571Y-25457D01*
X33742Y-25800D02*
X33142Y-25600D01*
X33742Y-25400D01*
X39142Y-26700D02*
X39571Y-26700D01*
X39657Y-26728D01*
X39714Y-26785D01*
X39742Y-26871D01*
X39742Y-26928D01*
X39200Y-26442D02*
X39171Y-26414D01*
X39142Y-26357D01*
X39142Y-26214D01*
X39171Y-26157D01*
X39200Y-26128D01*
X39257Y-26100D01*
X39314Y-26100D01*
X39400Y-26128D01*
X39742Y-26471D01*
X39742Y-26100D01*
X41142Y-27514D02*
X41628Y-27514D01*
X41685Y-27485D01*
X41714Y-27457D01*
X41742Y-27400D01*
X41742Y-27285D01*
X41714Y-27228D01*
X41685Y-27200D01*
X41628Y-27171D01*
X41142Y-27171D01*
X41714Y-26914D02*
X41742Y-26828D01*
X41742Y-26685D01*
X41714Y-26628D01*
X41685Y-26600D01*
X41628Y-26571D01*
X41571Y-26571D01*
X41514Y-26600D01*
X41485Y-26628D01*
X41457Y-26685D01*
X41428Y-26800D01*
X41400Y-26857D01*
X41371Y-26885D01*
X41314Y-26914D01*
X41257Y-26914D01*
X41200Y-26885D01*
X41171Y-26857D01*
X41142Y-26800D01*
X41142Y-26657D01*
X41171Y-26571D01*
X41428Y-26114D02*
X41457Y-26028D01*
X41485Y-26000D01*
X41542Y-25971D01*
X41628Y-25971D01*
X41685Y-26000D01*
X41714Y-26028D01*
X41742Y-26085D01*
X41742Y-26314D01*
X41142Y-26314D01*
X41142Y-26114D01*
X41171Y-26057D01*
X41200Y-26028D01*
X41257Y-26000D01*
X41314Y-26000D01*
X41371Y-26028D01*
X41400Y-26057D01*
X41428Y-26114D01*
X41428Y-26314D01*
X41571Y-25742D02*
X41571Y-25457D01*
X41742Y-25800D02*
X41142Y-25600D01*
X41742Y-25400D01*
G54D20*
X42704Y-11532D02*
X42610Y-11598D01*
X42704Y-11645D02*
X42507Y-11645D01*
X42507Y-11570D01*
X42517Y-11551D01*
X42526Y-11542D01*
X42545Y-11532D01*
X42573Y-11532D01*
X42592Y-11542D01*
X42601Y-11551D01*
X42610Y-11570D01*
X42610Y-11645D01*
X42704Y-11345D02*
X42704Y-11457D01*
X42704Y-11401D02*
X42507Y-11401D01*
X42535Y-11420D01*
X42554Y-11439D01*
X42564Y-11457D01*
X42232Y-11753D02*
X42232Y-11631D01*
X42307Y-11696D01*
X42307Y-11668D01*
X42317Y-11650D01*
X42326Y-11640D01*
X42345Y-11631D01*
X42392Y-11631D01*
X42410Y-11640D01*
X42420Y-11650D01*
X42429Y-11668D01*
X42429Y-11725D01*
X42420Y-11743D01*
X42410Y-11753D01*
X42429Y-11443D02*
X42429Y-11556D01*
X42429Y-11500D02*
X42232Y-11500D01*
X42260Y-11518D01*
X42279Y-11537D01*
X42289Y-11556D01*
X42232Y-11321D02*
X42232Y-11303D01*
X42242Y-11284D01*
X42251Y-11274D01*
X42270Y-11265D01*
X42307Y-11256D01*
X42354Y-11256D01*
X42392Y-11265D01*
X42410Y-11274D01*
X42420Y-11284D01*
X42429Y-11303D01*
X42429Y-11321D01*
X42420Y-11340D01*
X42410Y-11349D01*
X42392Y-11359D01*
X42354Y-11368D01*
X42307Y-11368D01*
X42270Y-11359D01*
X42251Y-11349D01*
X42242Y-11340D01*
X42232Y-11321D01*
X40685Y-11532D02*
X40695Y-11542D01*
X40704Y-11570D01*
X40704Y-11589D01*
X40695Y-11617D01*
X40676Y-11636D01*
X40657Y-11645D01*
X40620Y-11654D01*
X40592Y-11654D01*
X40554Y-11645D01*
X40535Y-11636D01*
X40517Y-11617D01*
X40507Y-11589D01*
X40507Y-11570D01*
X40517Y-11542D01*
X40526Y-11532D01*
X40526Y-11457D02*
X40517Y-11448D01*
X40507Y-11429D01*
X40507Y-11382D01*
X40517Y-11363D01*
X40526Y-11354D01*
X40545Y-11345D01*
X40564Y-11345D01*
X40592Y-11354D01*
X40704Y-11467D01*
X40704Y-11345D01*
X40232Y-11823D02*
X40232Y-11804D01*
X40242Y-11786D01*
X40251Y-11776D01*
X40270Y-11767D01*
X40307Y-11757D01*
X40354Y-11757D01*
X40392Y-11767D01*
X40410Y-11776D01*
X40420Y-11786D01*
X40429Y-11804D01*
X40429Y-11823D01*
X40420Y-11842D01*
X40410Y-11851D01*
X40392Y-11861D01*
X40354Y-11870D01*
X40307Y-11870D01*
X40270Y-11861D01*
X40251Y-11851D01*
X40242Y-11842D01*
X40232Y-11823D01*
X40410Y-11673D02*
X40420Y-11664D01*
X40429Y-11673D01*
X40420Y-11682D01*
X40410Y-11673D01*
X40429Y-11673D01*
X40429Y-11476D02*
X40429Y-11589D01*
X40429Y-11532D02*
X40232Y-11532D01*
X40260Y-11551D01*
X40279Y-11570D01*
X40289Y-11589D01*
X40298Y-11307D02*
X40429Y-11307D01*
X40298Y-11392D02*
X40401Y-11392D01*
X40420Y-11382D01*
X40429Y-11363D01*
X40429Y-11335D01*
X40420Y-11317D01*
X40410Y-11307D01*
X40326Y-11148D02*
X40326Y-11213D01*
X40429Y-11213D02*
X40232Y-11213D01*
X40232Y-11120D01*
G54D21*
X43121Y-15221D02*
X42821Y-15221D01*
X42821Y-15150D01*
X42835Y-15107D01*
X42864Y-15078D01*
X42892Y-15064D01*
X42950Y-15050D01*
X42992Y-15050D01*
X43050Y-15064D01*
X43078Y-15078D01*
X43107Y-15107D01*
X43121Y-15150D01*
X43121Y-15221D01*
X43121Y-14764D02*
X43121Y-14935D01*
X43121Y-14850D02*
X42821Y-14850D01*
X42864Y-14878D01*
X42892Y-14907D01*
X42907Y-14935D01*
X40121Y-15192D02*
X40121Y-15335D01*
X39821Y-15335D01*
X39964Y-15092D02*
X39964Y-14992D01*
X40121Y-14950D02*
X40121Y-15092D01*
X39821Y-15092D01*
X39821Y-14950D01*
X40121Y-14821D02*
X39821Y-14821D01*
X39821Y-14750D01*
X39835Y-14707D01*
X39864Y-14678D01*
X39892Y-14664D01*
X39950Y-14650D01*
X39992Y-14650D01*
X40050Y-14664D01*
X40078Y-14678D01*
X40107Y-14707D01*
X40121Y-14750D01*
X40121Y-14821D01*
G54D18*
X31367Y-15309D02*
X31367Y-15518D01*
X31951Y-15518D02*
X30835Y-15518D01*
X30835Y-15219D01*
X31951Y-14651D02*
X31951Y-15010D01*
X31951Y-14830D02*
X30835Y-14830D01*
X30995Y-14890D01*
X31101Y-14950D01*
X31154Y-15010D01*
X27380Y-16047D02*
X27380Y-16314D01*
X27904Y-16314D02*
X26904Y-16314D01*
X26904Y-15933D01*
X26904Y-15628D02*
X27714Y-15628D01*
X27809Y-15590D01*
X27857Y-15552D01*
X27904Y-15476D01*
X27904Y-15323D01*
X27857Y-15247D01*
X27809Y-15209D01*
X27714Y-15171D01*
X26904Y-15171D01*
X27857Y-14828D02*
X27904Y-14714D01*
X27904Y-14523D01*
X27857Y-14447D01*
X27809Y-14409D01*
X27714Y-14371D01*
X27619Y-14371D01*
X27523Y-14409D01*
X27476Y-14447D01*
X27428Y-14523D01*
X27380Y-14676D01*
X27333Y-14752D01*
X27285Y-14790D01*
X27190Y-14828D01*
X27095Y-14828D01*
X27000Y-14790D01*
X26952Y-14752D01*
X26904Y-14676D01*
X26904Y-14485D01*
X26952Y-14371D01*
X27380Y-14028D02*
X27380Y-13761D01*
X27904Y-13647D02*
X27904Y-14028D01*
X26904Y-14028D01*
X26904Y-13647D01*
G54D17*
X32102Y-12380D02*
X32507Y-12380D01*
X32554Y-12357D01*
X32578Y-12333D01*
X32602Y-12285D01*
X32602Y-12190D01*
X32578Y-12142D01*
X32554Y-12119D01*
X32507Y-12095D01*
X32102Y-12095D01*
X32602Y-11595D02*
X32602Y-11880D01*
X32602Y-11738D02*
X32102Y-11738D01*
X32173Y-11785D01*
X32221Y-11833D01*
X32245Y-11880D01*
X36402Y-12880D02*
X36402Y-12547D01*
X36902Y-12761D01*
X36616Y-12285D02*
X36592Y-12333D01*
X36569Y-12357D01*
X36521Y-12380D01*
X36497Y-12380D01*
X36450Y-12357D01*
X36426Y-12333D01*
X36402Y-12285D01*
X36402Y-12190D01*
X36426Y-12142D01*
X36450Y-12119D01*
X36497Y-12095D01*
X36521Y-12095D01*
X36569Y-12119D01*
X36592Y-12142D01*
X36616Y-12190D01*
X36616Y-12285D01*
X36640Y-12333D01*
X36664Y-12357D01*
X36711Y-12380D01*
X36807Y-12380D01*
X36854Y-12357D01*
X36878Y-12333D01*
X36902Y-12285D01*
X36902Y-12190D01*
X36878Y-12142D01*
X36854Y-12119D01*
X36807Y-12095D01*
X36711Y-12095D01*
X36664Y-12119D01*
X36640Y-12142D01*
X36616Y-12190D01*
X36402Y-11785D02*
X36402Y-11738D01*
X36426Y-11690D01*
X36450Y-11666D01*
X36497Y-11642D01*
X36592Y-11619D01*
X36711Y-11619D01*
X36807Y-11642D01*
X36854Y-11666D01*
X36878Y-11690D01*
X36902Y-11738D01*
X36902Y-11785D01*
X36878Y-11833D01*
X36854Y-11857D01*
X36807Y-11880D01*
X36711Y-11904D01*
X36592Y-11904D01*
X36497Y-11880D01*
X36450Y-11857D01*
X36426Y-11833D01*
X36402Y-11785D01*
X36402Y-11166D02*
X36402Y-11404D01*
X36640Y-11428D01*
X36616Y-11404D01*
X36592Y-11357D01*
X36592Y-11238D01*
X36616Y-11190D01*
X36640Y-11166D01*
X36688Y-11142D01*
X36807Y-11142D01*
X36854Y-11166D01*
X36878Y-11190D01*
X36902Y-11238D01*
X36902Y-11357D01*
X36878Y-11404D01*
X36854Y-11428D01*
G54D22*
X32260Y-18032D02*
X32270Y-18042D01*
X32279Y-18070D01*
X32279Y-18089D01*
X32270Y-18117D01*
X32251Y-18136D01*
X32232Y-18145D01*
X32195Y-18154D01*
X32167Y-18154D01*
X32129Y-18145D01*
X32110Y-18136D01*
X32092Y-18117D01*
X32082Y-18089D01*
X32082Y-18070D01*
X32092Y-18042D01*
X32101Y-18032D01*
X32279Y-17845D02*
X32279Y-17957D01*
X32279Y-17901D02*
X32082Y-17901D01*
X32110Y-17920D01*
X32129Y-17939D01*
X32139Y-17957D01*
G54D18*
X25742Y-18942D02*
X25142Y-18942D01*
X25142Y-18714D01*
X25171Y-18657D01*
X25200Y-18628D01*
X25257Y-18600D01*
X25342Y-18600D01*
X25400Y-18628D01*
X25428Y-18657D01*
X25457Y-18714D01*
X25457Y-18942D01*
X25742Y-18028D02*
X25742Y-18371D01*
X25742Y-18200D02*
X25142Y-18200D01*
X25228Y-18257D01*
X25285Y-18314D01*
X25314Y-18371D01*
X21742Y-20400D02*
X21742Y-20742D01*
X21742Y-20571D02*
X21142Y-20571D01*
X21228Y-20628D01*
X21285Y-20685D01*
X21314Y-20742D01*
X21200Y-20171D02*
X21171Y-20142D01*
X21142Y-20085D01*
X21142Y-19942D01*
X21171Y-19885D01*
X21200Y-19857D01*
X21257Y-19828D01*
X21314Y-19828D01*
X21400Y-19857D01*
X21742Y-20200D01*
X21742Y-19828D01*
X21142Y-19657D02*
X21742Y-19457D01*
X21142Y-19257D01*
X21742Y-18599D02*
X21142Y-18599D01*
X21742Y-18314D02*
X21142Y-18314D01*
X21742Y-17971D01*
X21142Y-17971D01*
X21742Y-17685D02*
X21142Y-17685D01*
X21142Y-17457D01*
X21171Y-17400D01*
X21200Y-17371D01*
X21257Y-17342D01*
X21342Y-17342D01*
X21400Y-17371D01*
X21428Y-17400D01*
X21457Y-17457D01*
X21457Y-17685D01*
X21142Y-17085D02*
X21628Y-17085D01*
X21685Y-17057D01*
X21714Y-17028D01*
X21742Y-16971D01*
X21742Y-16857D01*
X21714Y-16800D01*
X21685Y-16771D01*
X21628Y-16742D01*
X21142Y-16742D01*
X21142Y-16542D02*
X21142Y-16200D01*
X21742Y-16371D02*
X21142Y-16371D01*
G54D16*
M02*
