G04 (created by PCBNEW (2013-07-07 BZR 4022)-stable) date 6/6/2016 3:41:11 PM*
%MOIN*%
G04 Gerber Fmt 3.4, Leading zero omitted, Abs format*
%FSLAX34Y34*%
G01*
G70*
G90*
G04 APERTURE LIST*
%ADD10C,0.00590551*%
%ADD11C,0.0591*%
%ADD12R,0.0591X0.0591*%
%ADD13C,0.1181*%
%ADD14C,0.066*%
%ADD15C,0.15*%
%ADD16R,0.1X0.1*%
%ADD17C,0.1*%
%ADD18C,0.16*%
%ADD19C,0.035*%
%ADD20C,0.01*%
G04 APERTURE END LIST*
G54D10*
G54D11*
X33900Y-23500D03*
X32900Y-23500D03*
X32100Y-23500D03*
G54D12*
X31100Y-23500D03*
G54D13*
X35100Y-24550D03*
X29700Y-24550D03*
G54D11*
X41900Y-23500D03*
X40900Y-23500D03*
X40100Y-23500D03*
G54D12*
X39100Y-23500D03*
G54D13*
X43100Y-24550D03*
X37700Y-24550D03*
G54D14*
X41500Y-14500D03*
X41500Y-15500D03*
G54D15*
X29500Y-19500D03*
X29500Y-17500D03*
X29500Y-13500D03*
X29500Y-11500D03*
G54D16*
X23500Y-17500D03*
G54D17*
X23500Y-19500D03*
G54D18*
X22500Y-26000D03*
X22500Y-11000D03*
X47500Y-11000D03*
X47500Y-26000D03*
G54D19*
X34550Y-12000D03*
X34500Y-21500D03*
X40500Y-12750D03*
G54D20*
X34550Y-12000D02*
X34500Y-12000D01*
G54D10*
G36*
X49200Y-27700D02*
X48550Y-27700D01*
X48550Y-25792D01*
X48550Y-10792D01*
X48390Y-10406D01*
X48095Y-10110D01*
X47709Y-9950D01*
X47292Y-9949D01*
X46906Y-10109D01*
X46610Y-10404D01*
X46450Y-10790D01*
X46449Y-11207D01*
X46609Y-11594D01*
X46904Y-11889D01*
X47290Y-12049D01*
X47707Y-12050D01*
X48094Y-11890D01*
X48389Y-11595D01*
X48549Y-11209D01*
X48550Y-10792D01*
X48550Y-25792D01*
X48390Y-25406D01*
X48095Y-25110D01*
X47709Y-24950D01*
X47292Y-24949D01*
X46906Y-25109D01*
X46610Y-25404D01*
X46450Y-25790D01*
X46449Y-26207D01*
X46609Y-26594D01*
X46904Y-26889D01*
X47290Y-27049D01*
X47707Y-27050D01*
X48094Y-26890D01*
X48389Y-26595D01*
X48549Y-26209D01*
X48550Y-25792D01*
X48550Y-27700D01*
X43943Y-27700D01*
X43943Y-24701D01*
X43937Y-24366D01*
X43821Y-24087D01*
X43696Y-24024D01*
X43625Y-24095D01*
X43625Y-23953D01*
X43562Y-23828D01*
X43251Y-23706D01*
X42916Y-23712D01*
X42637Y-23828D01*
X42574Y-23953D01*
X43100Y-24479D01*
X43625Y-23953D01*
X43625Y-24095D01*
X43170Y-24550D01*
X43696Y-25075D01*
X43821Y-25012D01*
X43943Y-24701D01*
X43943Y-27700D01*
X43625Y-27700D01*
X43625Y-25146D01*
X43100Y-24620D01*
X43029Y-24691D01*
X43029Y-24550D01*
X42503Y-24024D01*
X42450Y-24051D01*
X42450Y-23580D01*
X42439Y-23363D01*
X42377Y-23214D01*
X42282Y-23188D01*
X42211Y-23258D01*
X42211Y-23117D01*
X42185Y-23022D01*
X42084Y-22986D01*
X42084Y-15588D01*
X42080Y-15489D01*
X42080Y-14385D01*
X41991Y-14171D01*
X41828Y-14008D01*
X41615Y-13920D01*
X41385Y-13919D01*
X41171Y-14008D01*
X41008Y-14171D01*
X40920Y-14384D01*
X40919Y-14614D01*
X41008Y-14828D01*
X41171Y-14991D01*
X41192Y-15000D01*
X41163Y-15092D01*
X41500Y-15429D01*
X41836Y-15092D01*
X41807Y-15000D01*
X41828Y-14991D01*
X41991Y-14828D01*
X42079Y-14615D01*
X42080Y-14385D01*
X42080Y-15489D01*
X42074Y-15358D01*
X42006Y-15194D01*
X41907Y-15163D01*
X41570Y-15500D01*
X41907Y-15836D01*
X42006Y-15805D01*
X42084Y-15588D01*
X42084Y-22986D01*
X41980Y-22949D01*
X41836Y-22957D01*
X41836Y-15907D01*
X41500Y-15570D01*
X41429Y-15641D01*
X41429Y-15500D01*
X41092Y-15163D01*
X40993Y-15194D01*
X40915Y-15411D01*
X40925Y-15641D01*
X40993Y-15805D01*
X41092Y-15836D01*
X41429Y-15500D01*
X41429Y-15641D01*
X41163Y-15907D01*
X41194Y-16006D01*
X41411Y-16084D01*
X41641Y-16074D01*
X41805Y-16006D01*
X41836Y-15907D01*
X41836Y-22957D01*
X41763Y-22960D01*
X41614Y-23022D01*
X41588Y-23117D01*
X41900Y-23429D01*
X42211Y-23117D01*
X42211Y-23258D01*
X41970Y-23500D01*
X42282Y-23811D01*
X42377Y-23785D01*
X42450Y-23580D01*
X42450Y-24051D01*
X42378Y-24087D01*
X42256Y-24398D01*
X42262Y-24733D01*
X42378Y-25012D01*
X42503Y-25075D01*
X43029Y-24550D01*
X43029Y-24691D01*
X42574Y-25146D01*
X42637Y-25271D01*
X42948Y-25393D01*
X43283Y-25387D01*
X43562Y-25271D01*
X43625Y-25146D01*
X43625Y-27700D01*
X42211Y-27700D01*
X42211Y-23882D01*
X41900Y-23570D01*
X41829Y-23641D01*
X41829Y-23500D01*
X41517Y-23188D01*
X41422Y-23214D01*
X41399Y-23279D01*
X41362Y-23191D01*
X41209Y-23037D01*
X41008Y-22954D01*
X40791Y-22954D01*
X40591Y-23037D01*
X40499Y-23128D01*
X40409Y-23037D01*
X40208Y-22954D01*
X39991Y-22954D01*
X39791Y-23037D01*
X39645Y-23182D01*
X39645Y-23154D01*
X39607Y-23063D01*
X39537Y-22992D01*
X39445Y-22954D01*
X39345Y-22954D01*
X38754Y-22954D01*
X38663Y-22992D01*
X38592Y-23062D01*
X38554Y-23154D01*
X38554Y-23254D01*
X38554Y-23845D01*
X38592Y-23936D01*
X38662Y-24007D01*
X38754Y-24045D01*
X38854Y-24045D01*
X39445Y-24045D01*
X39536Y-24007D01*
X39607Y-23937D01*
X39645Y-23845D01*
X39645Y-23816D01*
X39790Y-23962D01*
X39991Y-24045D01*
X40208Y-24045D01*
X40408Y-23962D01*
X40500Y-23871D01*
X40590Y-23962D01*
X40791Y-24045D01*
X41008Y-24045D01*
X41208Y-23962D01*
X41362Y-23809D01*
X41397Y-23724D01*
X41422Y-23785D01*
X41517Y-23811D01*
X41829Y-23500D01*
X41829Y-23641D01*
X41588Y-23882D01*
X41614Y-23977D01*
X41819Y-24050D01*
X42036Y-24039D01*
X42185Y-23977D01*
X42211Y-23882D01*
X42211Y-27700D01*
X38543Y-27700D01*
X38543Y-24701D01*
X38537Y-24366D01*
X38421Y-24087D01*
X38296Y-24024D01*
X38225Y-24095D01*
X38225Y-23953D01*
X38162Y-23828D01*
X37851Y-23706D01*
X37516Y-23712D01*
X37237Y-23828D01*
X37174Y-23953D01*
X37700Y-24479D01*
X38225Y-23953D01*
X38225Y-24095D01*
X37770Y-24550D01*
X38296Y-25075D01*
X38421Y-25012D01*
X38543Y-24701D01*
X38543Y-27700D01*
X38225Y-27700D01*
X38225Y-25146D01*
X37700Y-24620D01*
X37629Y-24691D01*
X37629Y-24550D01*
X37103Y-24024D01*
X36978Y-24087D01*
X36856Y-24398D01*
X36862Y-24733D01*
X36978Y-25012D01*
X37103Y-25075D01*
X37629Y-24550D01*
X37629Y-24691D01*
X37174Y-25146D01*
X37237Y-25271D01*
X37548Y-25393D01*
X37883Y-25387D01*
X38162Y-25271D01*
X38225Y-25146D01*
X38225Y-27700D01*
X35943Y-27700D01*
X35943Y-24701D01*
X35937Y-24366D01*
X35821Y-24087D01*
X35696Y-24024D01*
X35625Y-24095D01*
X35625Y-23953D01*
X35562Y-23828D01*
X35251Y-23706D01*
X34916Y-23712D01*
X34637Y-23828D01*
X34574Y-23953D01*
X35100Y-24479D01*
X35625Y-23953D01*
X35625Y-24095D01*
X35170Y-24550D01*
X35696Y-25075D01*
X35821Y-25012D01*
X35943Y-24701D01*
X35943Y-27700D01*
X35625Y-27700D01*
X35625Y-25146D01*
X35100Y-24620D01*
X35029Y-24691D01*
X35029Y-24550D01*
X34503Y-24024D01*
X34450Y-24051D01*
X34450Y-23580D01*
X34439Y-23363D01*
X34377Y-23214D01*
X34282Y-23188D01*
X34211Y-23258D01*
X34211Y-23117D01*
X34185Y-23022D01*
X33980Y-22949D01*
X33763Y-22960D01*
X33614Y-23022D01*
X33588Y-23117D01*
X33900Y-23429D01*
X34211Y-23117D01*
X34211Y-23258D01*
X33970Y-23500D01*
X34282Y-23811D01*
X34377Y-23785D01*
X34450Y-23580D01*
X34450Y-24051D01*
X34378Y-24087D01*
X34256Y-24398D01*
X34262Y-24733D01*
X34378Y-25012D01*
X34503Y-25075D01*
X35029Y-24550D01*
X35029Y-24691D01*
X34574Y-25146D01*
X34637Y-25271D01*
X34948Y-25393D01*
X35283Y-25387D01*
X35562Y-25271D01*
X35625Y-25146D01*
X35625Y-27700D01*
X34211Y-27700D01*
X34211Y-23882D01*
X33900Y-23570D01*
X33829Y-23641D01*
X33829Y-23500D01*
X33517Y-23188D01*
X33422Y-23214D01*
X33399Y-23279D01*
X33362Y-23191D01*
X33209Y-23037D01*
X33008Y-22954D01*
X32791Y-22954D01*
X32591Y-23037D01*
X32499Y-23128D01*
X32409Y-23037D01*
X32208Y-22954D01*
X31991Y-22954D01*
X31791Y-23037D01*
X31645Y-23182D01*
X31645Y-23154D01*
X31607Y-23063D01*
X31537Y-22992D01*
X31445Y-22954D01*
X31345Y-22954D01*
X30754Y-22954D01*
X30663Y-22992D01*
X30592Y-23062D01*
X30554Y-23154D01*
X30554Y-23254D01*
X30554Y-23845D01*
X30592Y-23936D01*
X30662Y-24007D01*
X30754Y-24045D01*
X30854Y-24045D01*
X31445Y-24045D01*
X31536Y-24007D01*
X31607Y-23937D01*
X31645Y-23845D01*
X31645Y-23816D01*
X31790Y-23962D01*
X31991Y-24045D01*
X32208Y-24045D01*
X32408Y-23962D01*
X32500Y-23871D01*
X32590Y-23962D01*
X32791Y-24045D01*
X33008Y-24045D01*
X33208Y-23962D01*
X33362Y-23809D01*
X33397Y-23724D01*
X33422Y-23785D01*
X33517Y-23811D01*
X33829Y-23500D01*
X33829Y-23641D01*
X33588Y-23882D01*
X33614Y-23977D01*
X33819Y-24050D01*
X34036Y-24039D01*
X34185Y-23977D01*
X34211Y-23882D01*
X34211Y-27700D01*
X30543Y-27700D01*
X30543Y-24701D01*
X30537Y-24366D01*
X30500Y-24277D01*
X30500Y-19301D01*
X30348Y-18934D01*
X30067Y-18652D01*
X29699Y-18500D01*
X29698Y-18500D01*
X30065Y-18348D01*
X30347Y-18067D01*
X30499Y-17699D01*
X30500Y-17301D01*
X30500Y-13301D01*
X30348Y-12934D01*
X30067Y-12652D01*
X29699Y-12500D01*
X29698Y-12500D01*
X30065Y-12348D01*
X30347Y-12067D01*
X30499Y-11699D01*
X30500Y-11301D01*
X30348Y-10934D01*
X30067Y-10652D01*
X29699Y-10500D01*
X29301Y-10499D01*
X28934Y-10651D01*
X28652Y-10932D01*
X28500Y-11300D01*
X28499Y-11698D01*
X28651Y-12065D01*
X28932Y-12347D01*
X29300Y-12499D01*
X29301Y-12499D01*
X28934Y-12651D01*
X28652Y-12932D01*
X28500Y-13300D01*
X28499Y-13698D01*
X28651Y-14065D01*
X28932Y-14347D01*
X29300Y-14499D01*
X29698Y-14500D01*
X30065Y-14348D01*
X30347Y-14067D01*
X30499Y-13699D01*
X30500Y-13301D01*
X30500Y-17301D01*
X30348Y-16934D01*
X30067Y-16652D01*
X29699Y-16500D01*
X29301Y-16499D01*
X28934Y-16651D01*
X28652Y-16932D01*
X28500Y-17300D01*
X28499Y-17698D01*
X28651Y-18065D01*
X28932Y-18347D01*
X29300Y-18499D01*
X29301Y-18499D01*
X28934Y-18651D01*
X28652Y-18932D01*
X28500Y-19300D01*
X28499Y-19698D01*
X28651Y-20065D01*
X28932Y-20347D01*
X29300Y-20499D01*
X29698Y-20500D01*
X30065Y-20348D01*
X30347Y-20067D01*
X30499Y-19699D01*
X30500Y-19301D01*
X30500Y-24277D01*
X30421Y-24087D01*
X30296Y-24024D01*
X30225Y-24095D01*
X30225Y-23953D01*
X30162Y-23828D01*
X29851Y-23706D01*
X29516Y-23712D01*
X29237Y-23828D01*
X29174Y-23953D01*
X29700Y-24479D01*
X30225Y-23953D01*
X30225Y-24095D01*
X29770Y-24550D01*
X30296Y-25075D01*
X30421Y-25012D01*
X30543Y-24701D01*
X30543Y-27700D01*
X30225Y-27700D01*
X30225Y-25146D01*
X29700Y-24620D01*
X29629Y-24691D01*
X29629Y-24550D01*
X29103Y-24024D01*
X28978Y-24087D01*
X28856Y-24398D01*
X28862Y-24733D01*
X28978Y-25012D01*
X29103Y-25075D01*
X29629Y-24550D01*
X29629Y-24691D01*
X29174Y-25146D01*
X29237Y-25271D01*
X29548Y-25393D01*
X29883Y-25387D01*
X30162Y-25271D01*
X30225Y-25146D01*
X30225Y-27700D01*
X24253Y-27700D01*
X24253Y-19629D01*
X24250Y-19491D01*
X24250Y-17950D01*
X24250Y-16950D01*
X24212Y-16858D01*
X24141Y-16788D01*
X24049Y-16750D01*
X23950Y-16749D01*
X23550Y-16749D01*
X23550Y-10792D01*
X23390Y-10406D01*
X23095Y-10110D01*
X22709Y-9950D01*
X22292Y-9949D01*
X21906Y-10109D01*
X21610Y-10404D01*
X21450Y-10790D01*
X21449Y-11207D01*
X21609Y-11594D01*
X21904Y-11889D01*
X22290Y-12049D01*
X22707Y-12050D01*
X23094Y-11890D01*
X23389Y-11595D01*
X23549Y-11209D01*
X23550Y-10792D01*
X23550Y-16749D01*
X22950Y-16749D01*
X22858Y-16787D01*
X22788Y-16858D01*
X22750Y-16950D01*
X22749Y-17049D01*
X22749Y-18049D01*
X22787Y-18141D01*
X22858Y-18211D01*
X22950Y-18249D01*
X23049Y-18250D01*
X24049Y-18250D01*
X24141Y-18212D01*
X24211Y-18141D01*
X24249Y-18049D01*
X24250Y-17950D01*
X24250Y-19491D01*
X24245Y-19331D01*
X24146Y-19091D01*
X24030Y-19040D01*
X23959Y-19110D01*
X23959Y-18969D01*
X23908Y-18853D01*
X23629Y-18746D01*
X23331Y-18754D01*
X23091Y-18853D01*
X23040Y-18969D01*
X23500Y-19429D01*
X23959Y-18969D01*
X23959Y-19110D01*
X23570Y-19500D01*
X24030Y-19959D01*
X24146Y-19908D01*
X24253Y-19629D01*
X24253Y-27700D01*
X23959Y-27700D01*
X23959Y-20030D01*
X23500Y-19570D01*
X23429Y-19641D01*
X23429Y-19500D01*
X22969Y-19040D01*
X22853Y-19091D01*
X22746Y-19370D01*
X22754Y-19668D01*
X22853Y-19908D01*
X22969Y-19959D01*
X23429Y-19500D01*
X23429Y-19641D01*
X23040Y-20030D01*
X23091Y-20146D01*
X23370Y-20253D01*
X23668Y-20245D01*
X23908Y-20146D01*
X23959Y-20030D01*
X23959Y-27700D01*
X23550Y-27700D01*
X23550Y-25792D01*
X23390Y-25406D01*
X23095Y-25110D01*
X22709Y-24950D01*
X22292Y-24949D01*
X21906Y-25109D01*
X21610Y-25404D01*
X21450Y-25790D01*
X21449Y-26207D01*
X21609Y-26594D01*
X21904Y-26889D01*
X22290Y-27049D01*
X22707Y-27050D01*
X23094Y-26890D01*
X23389Y-26595D01*
X23549Y-26209D01*
X23550Y-25792D01*
X23550Y-27700D01*
X20800Y-27700D01*
X20800Y-9300D01*
X49200Y-9300D01*
X49200Y-27700D01*
X49200Y-27700D01*
G37*
G54D20*
X49200Y-27700D02*
X48550Y-27700D01*
X48550Y-25792D01*
X48550Y-10792D01*
X48390Y-10406D01*
X48095Y-10110D01*
X47709Y-9950D01*
X47292Y-9949D01*
X46906Y-10109D01*
X46610Y-10404D01*
X46450Y-10790D01*
X46449Y-11207D01*
X46609Y-11594D01*
X46904Y-11889D01*
X47290Y-12049D01*
X47707Y-12050D01*
X48094Y-11890D01*
X48389Y-11595D01*
X48549Y-11209D01*
X48550Y-10792D01*
X48550Y-25792D01*
X48390Y-25406D01*
X48095Y-25110D01*
X47709Y-24950D01*
X47292Y-24949D01*
X46906Y-25109D01*
X46610Y-25404D01*
X46450Y-25790D01*
X46449Y-26207D01*
X46609Y-26594D01*
X46904Y-26889D01*
X47290Y-27049D01*
X47707Y-27050D01*
X48094Y-26890D01*
X48389Y-26595D01*
X48549Y-26209D01*
X48550Y-25792D01*
X48550Y-27700D01*
X43943Y-27700D01*
X43943Y-24701D01*
X43937Y-24366D01*
X43821Y-24087D01*
X43696Y-24024D01*
X43625Y-24095D01*
X43625Y-23953D01*
X43562Y-23828D01*
X43251Y-23706D01*
X42916Y-23712D01*
X42637Y-23828D01*
X42574Y-23953D01*
X43100Y-24479D01*
X43625Y-23953D01*
X43625Y-24095D01*
X43170Y-24550D01*
X43696Y-25075D01*
X43821Y-25012D01*
X43943Y-24701D01*
X43943Y-27700D01*
X43625Y-27700D01*
X43625Y-25146D01*
X43100Y-24620D01*
X43029Y-24691D01*
X43029Y-24550D01*
X42503Y-24024D01*
X42450Y-24051D01*
X42450Y-23580D01*
X42439Y-23363D01*
X42377Y-23214D01*
X42282Y-23188D01*
X42211Y-23258D01*
X42211Y-23117D01*
X42185Y-23022D01*
X42084Y-22986D01*
X42084Y-15588D01*
X42080Y-15489D01*
X42080Y-14385D01*
X41991Y-14171D01*
X41828Y-14008D01*
X41615Y-13920D01*
X41385Y-13919D01*
X41171Y-14008D01*
X41008Y-14171D01*
X40920Y-14384D01*
X40919Y-14614D01*
X41008Y-14828D01*
X41171Y-14991D01*
X41192Y-15000D01*
X41163Y-15092D01*
X41500Y-15429D01*
X41836Y-15092D01*
X41807Y-15000D01*
X41828Y-14991D01*
X41991Y-14828D01*
X42079Y-14615D01*
X42080Y-14385D01*
X42080Y-15489D01*
X42074Y-15358D01*
X42006Y-15194D01*
X41907Y-15163D01*
X41570Y-15500D01*
X41907Y-15836D01*
X42006Y-15805D01*
X42084Y-15588D01*
X42084Y-22986D01*
X41980Y-22949D01*
X41836Y-22957D01*
X41836Y-15907D01*
X41500Y-15570D01*
X41429Y-15641D01*
X41429Y-15500D01*
X41092Y-15163D01*
X40993Y-15194D01*
X40915Y-15411D01*
X40925Y-15641D01*
X40993Y-15805D01*
X41092Y-15836D01*
X41429Y-15500D01*
X41429Y-15641D01*
X41163Y-15907D01*
X41194Y-16006D01*
X41411Y-16084D01*
X41641Y-16074D01*
X41805Y-16006D01*
X41836Y-15907D01*
X41836Y-22957D01*
X41763Y-22960D01*
X41614Y-23022D01*
X41588Y-23117D01*
X41900Y-23429D01*
X42211Y-23117D01*
X42211Y-23258D01*
X41970Y-23500D01*
X42282Y-23811D01*
X42377Y-23785D01*
X42450Y-23580D01*
X42450Y-24051D01*
X42378Y-24087D01*
X42256Y-24398D01*
X42262Y-24733D01*
X42378Y-25012D01*
X42503Y-25075D01*
X43029Y-24550D01*
X43029Y-24691D01*
X42574Y-25146D01*
X42637Y-25271D01*
X42948Y-25393D01*
X43283Y-25387D01*
X43562Y-25271D01*
X43625Y-25146D01*
X43625Y-27700D01*
X42211Y-27700D01*
X42211Y-23882D01*
X41900Y-23570D01*
X41829Y-23641D01*
X41829Y-23500D01*
X41517Y-23188D01*
X41422Y-23214D01*
X41399Y-23279D01*
X41362Y-23191D01*
X41209Y-23037D01*
X41008Y-22954D01*
X40791Y-22954D01*
X40591Y-23037D01*
X40499Y-23128D01*
X40409Y-23037D01*
X40208Y-22954D01*
X39991Y-22954D01*
X39791Y-23037D01*
X39645Y-23182D01*
X39645Y-23154D01*
X39607Y-23063D01*
X39537Y-22992D01*
X39445Y-22954D01*
X39345Y-22954D01*
X38754Y-22954D01*
X38663Y-22992D01*
X38592Y-23062D01*
X38554Y-23154D01*
X38554Y-23254D01*
X38554Y-23845D01*
X38592Y-23936D01*
X38662Y-24007D01*
X38754Y-24045D01*
X38854Y-24045D01*
X39445Y-24045D01*
X39536Y-24007D01*
X39607Y-23937D01*
X39645Y-23845D01*
X39645Y-23816D01*
X39790Y-23962D01*
X39991Y-24045D01*
X40208Y-24045D01*
X40408Y-23962D01*
X40500Y-23871D01*
X40590Y-23962D01*
X40791Y-24045D01*
X41008Y-24045D01*
X41208Y-23962D01*
X41362Y-23809D01*
X41397Y-23724D01*
X41422Y-23785D01*
X41517Y-23811D01*
X41829Y-23500D01*
X41829Y-23641D01*
X41588Y-23882D01*
X41614Y-23977D01*
X41819Y-24050D01*
X42036Y-24039D01*
X42185Y-23977D01*
X42211Y-23882D01*
X42211Y-27700D01*
X38543Y-27700D01*
X38543Y-24701D01*
X38537Y-24366D01*
X38421Y-24087D01*
X38296Y-24024D01*
X38225Y-24095D01*
X38225Y-23953D01*
X38162Y-23828D01*
X37851Y-23706D01*
X37516Y-23712D01*
X37237Y-23828D01*
X37174Y-23953D01*
X37700Y-24479D01*
X38225Y-23953D01*
X38225Y-24095D01*
X37770Y-24550D01*
X38296Y-25075D01*
X38421Y-25012D01*
X38543Y-24701D01*
X38543Y-27700D01*
X38225Y-27700D01*
X38225Y-25146D01*
X37700Y-24620D01*
X37629Y-24691D01*
X37629Y-24550D01*
X37103Y-24024D01*
X36978Y-24087D01*
X36856Y-24398D01*
X36862Y-24733D01*
X36978Y-25012D01*
X37103Y-25075D01*
X37629Y-24550D01*
X37629Y-24691D01*
X37174Y-25146D01*
X37237Y-25271D01*
X37548Y-25393D01*
X37883Y-25387D01*
X38162Y-25271D01*
X38225Y-25146D01*
X38225Y-27700D01*
X35943Y-27700D01*
X35943Y-24701D01*
X35937Y-24366D01*
X35821Y-24087D01*
X35696Y-24024D01*
X35625Y-24095D01*
X35625Y-23953D01*
X35562Y-23828D01*
X35251Y-23706D01*
X34916Y-23712D01*
X34637Y-23828D01*
X34574Y-23953D01*
X35100Y-24479D01*
X35625Y-23953D01*
X35625Y-24095D01*
X35170Y-24550D01*
X35696Y-25075D01*
X35821Y-25012D01*
X35943Y-24701D01*
X35943Y-27700D01*
X35625Y-27700D01*
X35625Y-25146D01*
X35100Y-24620D01*
X35029Y-24691D01*
X35029Y-24550D01*
X34503Y-24024D01*
X34450Y-24051D01*
X34450Y-23580D01*
X34439Y-23363D01*
X34377Y-23214D01*
X34282Y-23188D01*
X34211Y-23258D01*
X34211Y-23117D01*
X34185Y-23022D01*
X33980Y-22949D01*
X33763Y-22960D01*
X33614Y-23022D01*
X33588Y-23117D01*
X33900Y-23429D01*
X34211Y-23117D01*
X34211Y-23258D01*
X33970Y-23500D01*
X34282Y-23811D01*
X34377Y-23785D01*
X34450Y-23580D01*
X34450Y-24051D01*
X34378Y-24087D01*
X34256Y-24398D01*
X34262Y-24733D01*
X34378Y-25012D01*
X34503Y-25075D01*
X35029Y-24550D01*
X35029Y-24691D01*
X34574Y-25146D01*
X34637Y-25271D01*
X34948Y-25393D01*
X35283Y-25387D01*
X35562Y-25271D01*
X35625Y-25146D01*
X35625Y-27700D01*
X34211Y-27700D01*
X34211Y-23882D01*
X33900Y-23570D01*
X33829Y-23641D01*
X33829Y-23500D01*
X33517Y-23188D01*
X33422Y-23214D01*
X33399Y-23279D01*
X33362Y-23191D01*
X33209Y-23037D01*
X33008Y-22954D01*
X32791Y-22954D01*
X32591Y-23037D01*
X32499Y-23128D01*
X32409Y-23037D01*
X32208Y-22954D01*
X31991Y-22954D01*
X31791Y-23037D01*
X31645Y-23182D01*
X31645Y-23154D01*
X31607Y-23063D01*
X31537Y-22992D01*
X31445Y-22954D01*
X31345Y-22954D01*
X30754Y-22954D01*
X30663Y-22992D01*
X30592Y-23062D01*
X30554Y-23154D01*
X30554Y-23254D01*
X30554Y-23845D01*
X30592Y-23936D01*
X30662Y-24007D01*
X30754Y-24045D01*
X30854Y-24045D01*
X31445Y-24045D01*
X31536Y-24007D01*
X31607Y-23937D01*
X31645Y-23845D01*
X31645Y-23816D01*
X31790Y-23962D01*
X31991Y-24045D01*
X32208Y-24045D01*
X32408Y-23962D01*
X32500Y-23871D01*
X32590Y-23962D01*
X32791Y-24045D01*
X33008Y-24045D01*
X33208Y-23962D01*
X33362Y-23809D01*
X33397Y-23724D01*
X33422Y-23785D01*
X33517Y-23811D01*
X33829Y-23500D01*
X33829Y-23641D01*
X33588Y-23882D01*
X33614Y-23977D01*
X33819Y-24050D01*
X34036Y-24039D01*
X34185Y-23977D01*
X34211Y-23882D01*
X34211Y-27700D01*
X30543Y-27700D01*
X30543Y-24701D01*
X30537Y-24366D01*
X30500Y-24277D01*
X30500Y-19301D01*
X30348Y-18934D01*
X30067Y-18652D01*
X29699Y-18500D01*
X29698Y-18500D01*
X30065Y-18348D01*
X30347Y-18067D01*
X30499Y-17699D01*
X30500Y-17301D01*
X30500Y-13301D01*
X30348Y-12934D01*
X30067Y-12652D01*
X29699Y-12500D01*
X29698Y-12500D01*
X30065Y-12348D01*
X30347Y-12067D01*
X30499Y-11699D01*
X30500Y-11301D01*
X30348Y-10934D01*
X30067Y-10652D01*
X29699Y-10500D01*
X29301Y-10499D01*
X28934Y-10651D01*
X28652Y-10932D01*
X28500Y-11300D01*
X28499Y-11698D01*
X28651Y-12065D01*
X28932Y-12347D01*
X29300Y-12499D01*
X29301Y-12499D01*
X28934Y-12651D01*
X28652Y-12932D01*
X28500Y-13300D01*
X28499Y-13698D01*
X28651Y-14065D01*
X28932Y-14347D01*
X29300Y-14499D01*
X29698Y-14500D01*
X30065Y-14348D01*
X30347Y-14067D01*
X30499Y-13699D01*
X30500Y-13301D01*
X30500Y-17301D01*
X30348Y-16934D01*
X30067Y-16652D01*
X29699Y-16500D01*
X29301Y-16499D01*
X28934Y-16651D01*
X28652Y-16932D01*
X28500Y-17300D01*
X28499Y-17698D01*
X28651Y-18065D01*
X28932Y-18347D01*
X29300Y-18499D01*
X29301Y-18499D01*
X28934Y-18651D01*
X28652Y-18932D01*
X28500Y-19300D01*
X28499Y-19698D01*
X28651Y-20065D01*
X28932Y-20347D01*
X29300Y-20499D01*
X29698Y-20500D01*
X30065Y-20348D01*
X30347Y-20067D01*
X30499Y-19699D01*
X30500Y-19301D01*
X30500Y-24277D01*
X30421Y-24087D01*
X30296Y-24024D01*
X30225Y-24095D01*
X30225Y-23953D01*
X30162Y-23828D01*
X29851Y-23706D01*
X29516Y-23712D01*
X29237Y-23828D01*
X29174Y-23953D01*
X29700Y-24479D01*
X30225Y-23953D01*
X30225Y-24095D01*
X29770Y-24550D01*
X30296Y-25075D01*
X30421Y-25012D01*
X30543Y-24701D01*
X30543Y-27700D01*
X30225Y-27700D01*
X30225Y-25146D01*
X29700Y-24620D01*
X29629Y-24691D01*
X29629Y-24550D01*
X29103Y-24024D01*
X28978Y-24087D01*
X28856Y-24398D01*
X28862Y-24733D01*
X28978Y-25012D01*
X29103Y-25075D01*
X29629Y-24550D01*
X29629Y-24691D01*
X29174Y-25146D01*
X29237Y-25271D01*
X29548Y-25393D01*
X29883Y-25387D01*
X30162Y-25271D01*
X30225Y-25146D01*
X30225Y-27700D01*
X24253Y-27700D01*
X24253Y-19629D01*
X24250Y-19491D01*
X24250Y-17950D01*
X24250Y-16950D01*
X24212Y-16858D01*
X24141Y-16788D01*
X24049Y-16750D01*
X23950Y-16749D01*
X23550Y-16749D01*
X23550Y-10792D01*
X23390Y-10406D01*
X23095Y-10110D01*
X22709Y-9950D01*
X22292Y-9949D01*
X21906Y-10109D01*
X21610Y-10404D01*
X21450Y-10790D01*
X21449Y-11207D01*
X21609Y-11594D01*
X21904Y-11889D01*
X22290Y-12049D01*
X22707Y-12050D01*
X23094Y-11890D01*
X23389Y-11595D01*
X23549Y-11209D01*
X23550Y-10792D01*
X23550Y-16749D01*
X22950Y-16749D01*
X22858Y-16787D01*
X22788Y-16858D01*
X22750Y-16950D01*
X22749Y-17049D01*
X22749Y-18049D01*
X22787Y-18141D01*
X22858Y-18211D01*
X22950Y-18249D01*
X23049Y-18250D01*
X24049Y-18250D01*
X24141Y-18212D01*
X24211Y-18141D01*
X24249Y-18049D01*
X24250Y-17950D01*
X24250Y-19491D01*
X24245Y-19331D01*
X24146Y-19091D01*
X24030Y-19040D01*
X23959Y-19110D01*
X23959Y-18969D01*
X23908Y-18853D01*
X23629Y-18746D01*
X23331Y-18754D01*
X23091Y-18853D01*
X23040Y-18969D01*
X23500Y-19429D01*
X23959Y-18969D01*
X23959Y-19110D01*
X23570Y-19500D01*
X24030Y-19959D01*
X24146Y-19908D01*
X24253Y-19629D01*
X24253Y-27700D01*
X23959Y-27700D01*
X23959Y-20030D01*
X23500Y-19570D01*
X23429Y-19641D01*
X23429Y-19500D01*
X22969Y-19040D01*
X22853Y-19091D01*
X22746Y-19370D01*
X22754Y-19668D01*
X22853Y-19908D01*
X22969Y-19959D01*
X23429Y-19500D01*
X23429Y-19641D01*
X23040Y-20030D01*
X23091Y-20146D01*
X23370Y-20253D01*
X23668Y-20245D01*
X23908Y-20146D01*
X23959Y-20030D01*
X23959Y-27700D01*
X23550Y-27700D01*
X23550Y-25792D01*
X23390Y-25406D01*
X23095Y-25110D01*
X22709Y-24950D01*
X22292Y-24949D01*
X21906Y-25109D01*
X21610Y-25404D01*
X21450Y-25790D01*
X21449Y-26207D01*
X21609Y-26594D01*
X21904Y-26889D01*
X22290Y-27049D01*
X22707Y-27050D01*
X23094Y-26890D01*
X23389Y-26595D01*
X23549Y-26209D01*
X23550Y-25792D01*
X23550Y-27700D01*
X20800Y-27700D01*
X20800Y-9300D01*
X49200Y-9300D01*
X49200Y-27700D01*
M02*
