G04 (created by PCBNEW (2013-07-07 BZR 4022)-stable) date 6/7/2016 7:46:03 AM*
%MOIN*%
G04 Gerber Fmt 3.4, Leading zero omitted, Abs format*
%FSLAX34Y34*%
G01*
G70*
G90*
G04 APERTURE LIST*
%ADD10C,0.00590551*%
%ADD11C,0.011811*%
%ADD12C,0.005*%
%ADD13C,0.0039*%
%ADD14C,0.008*%
%ADD15C,0.003*%
%ADD16C,0.01*%
%ADD17C,0.006*%
%ADD18C,0.012*%
%ADD19C,0.015*%
%ADD20C,0.0043*%
%ADD21C,0.0035*%
%ADD22C,0.0047*%
G04 APERTURE END LIST*
G54D10*
G54D11*
X22209Y-23264D02*
X22659Y-23264D01*
X23250Y-23489D02*
X22912Y-23489D01*
X23081Y-23489D02*
X23081Y-22898D01*
X23025Y-22982D01*
X22968Y-23039D01*
X22912Y-23067D01*
X23474Y-22954D02*
X23503Y-22926D01*
X23559Y-22898D01*
X23699Y-22898D01*
X23756Y-22926D01*
X23784Y-22954D01*
X23812Y-23010D01*
X23812Y-23067D01*
X23784Y-23151D01*
X23446Y-23489D01*
X23812Y-23489D01*
X23981Y-22898D02*
X24178Y-23489D01*
X24374Y-22898D01*
X22209Y-16764D02*
X22659Y-16764D01*
X22434Y-16989D02*
X22434Y-16539D01*
X23250Y-16989D02*
X22912Y-16989D01*
X23081Y-16989D02*
X23081Y-16398D01*
X23025Y-16482D01*
X22968Y-16539D01*
X22912Y-16567D01*
X23474Y-16454D02*
X23503Y-16426D01*
X23559Y-16398D01*
X23699Y-16398D01*
X23756Y-16426D01*
X23784Y-16454D01*
X23812Y-16510D01*
X23812Y-16567D01*
X23784Y-16651D01*
X23446Y-16989D01*
X23812Y-16989D01*
X23981Y-16398D02*
X24178Y-16989D01*
X24374Y-16398D01*
X45648Y-24199D02*
X45648Y-24086D01*
X45676Y-24030D01*
X45732Y-23974D01*
X45845Y-23946D01*
X46042Y-23946D01*
X46154Y-23974D01*
X46210Y-24030D01*
X46239Y-24086D01*
X46239Y-24199D01*
X46210Y-24255D01*
X46154Y-24311D01*
X46042Y-24339D01*
X45845Y-24339D01*
X45732Y-24311D01*
X45676Y-24255D01*
X45648Y-24199D01*
X46239Y-23693D02*
X45648Y-23693D01*
X46239Y-23355D02*
X45901Y-23608D01*
X45648Y-23355D02*
X45985Y-23693D01*
X46239Y-23102D02*
X45648Y-23102D01*
X46239Y-22034D02*
X45957Y-22230D01*
X46239Y-22371D02*
X45648Y-22371D01*
X45648Y-22146D01*
X45676Y-22090D01*
X45704Y-22062D01*
X45760Y-22034D01*
X45845Y-22034D01*
X45901Y-22062D01*
X45929Y-22090D01*
X45957Y-22146D01*
X45957Y-22371D01*
X45929Y-21780D02*
X45929Y-21584D01*
X46239Y-21499D02*
X46239Y-21780D01*
X45648Y-21780D01*
X45648Y-21499D01*
X45676Y-20937D02*
X45648Y-20993D01*
X45648Y-21077D01*
X45676Y-21162D01*
X45732Y-21218D01*
X45789Y-21246D01*
X45901Y-21274D01*
X45985Y-21274D01*
X46098Y-21246D01*
X46154Y-21218D01*
X46210Y-21162D01*
X46239Y-21077D01*
X46239Y-21021D01*
X46210Y-20937D01*
X46182Y-20909D01*
X45985Y-20909D01*
X45985Y-21021D01*
X46239Y-20656D02*
X45648Y-20656D01*
X45648Y-20262D02*
X45648Y-20149D01*
X45676Y-20093D01*
X45732Y-20037D01*
X45845Y-20009D01*
X46042Y-20009D01*
X46154Y-20037D01*
X46210Y-20093D01*
X46239Y-20149D01*
X46239Y-20262D01*
X46210Y-20318D01*
X46154Y-20374D01*
X46042Y-20402D01*
X45845Y-20402D01*
X45732Y-20374D01*
X45676Y-20318D01*
X45648Y-20262D01*
X46239Y-19756D02*
X45648Y-19756D01*
X46239Y-19418D01*
X45648Y-19418D01*
X46070Y-19165D02*
X46070Y-18884D01*
X46239Y-19221D02*
X45648Y-19025D01*
X46239Y-18828D01*
X46239Y-18350D02*
X46239Y-18631D01*
X45648Y-18631D01*
X46182Y-17365D02*
X46210Y-17393D01*
X46239Y-17478D01*
X46239Y-17534D01*
X46210Y-17618D01*
X46154Y-17675D01*
X46098Y-17703D01*
X45985Y-17731D01*
X45901Y-17731D01*
X45789Y-17703D01*
X45732Y-17675D01*
X45676Y-17618D01*
X45648Y-17534D01*
X45648Y-17478D01*
X45676Y-17393D01*
X45704Y-17365D01*
X45648Y-17000D02*
X45648Y-16887D01*
X45676Y-16831D01*
X45732Y-16775D01*
X45845Y-16747D01*
X46042Y-16747D01*
X46154Y-16775D01*
X46210Y-16831D01*
X46239Y-16887D01*
X46239Y-17000D01*
X46210Y-17056D01*
X46154Y-17112D01*
X46042Y-17140D01*
X45845Y-17140D01*
X45732Y-17112D01*
X45676Y-17056D01*
X45648Y-17000D01*
X45648Y-16494D02*
X46126Y-16494D01*
X46182Y-16465D01*
X46210Y-16437D01*
X46239Y-16381D01*
X46239Y-16269D01*
X46210Y-16212D01*
X46182Y-16184D01*
X46126Y-16156D01*
X45648Y-16156D01*
X46239Y-15875D02*
X45648Y-15875D01*
X46239Y-15537D01*
X45648Y-15537D01*
X46182Y-14919D02*
X46210Y-14947D01*
X46239Y-15031D01*
X46239Y-15088D01*
X46210Y-15172D01*
X46154Y-15228D01*
X46098Y-15256D01*
X45985Y-15284D01*
X45901Y-15284D01*
X45789Y-15256D01*
X45732Y-15228D01*
X45676Y-15172D01*
X45648Y-15088D01*
X45648Y-15031D01*
X45676Y-14947D01*
X45704Y-14919D01*
X46239Y-14666D02*
X45648Y-14666D01*
X46239Y-14103D02*
X46239Y-14384D01*
X45648Y-14384D01*
X47183Y-24129D02*
X47183Y-24466D01*
X47183Y-24297D02*
X46593Y-24297D01*
X46677Y-24354D01*
X46733Y-24410D01*
X46762Y-24466D01*
X46649Y-23904D02*
X46621Y-23875D01*
X46593Y-23819D01*
X46593Y-23679D01*
X46621Y-23622D01*
X46649Y-23594D01*
X46705Y-23566D01*
X46762Y-23566D01*
X46846Y-23594D01*
X47183Y-23932D01*
X47183Y-23566D01*
X46593Y-23397D02*
X47183Y-23201D01*
X46593Y-23004D01*
X46790Y-22441D02*
X46790Y-22216D01*
X46593Y-22357D02*
X47099Y-22357D01*
X47155Y-22329D01*
X47183Y-22273D01*
X47183Y-22216D01*
X47183Y-21935D02*
X47155Y-21991D01*
X47127Y-22019D01*
X47071Y-22048D01*
X46902Y-22048D01*
X46846Y-22019D01*
X46818Y-21991D01*
X46790Y-21935D01*
X46790Y-21851D01*
X46818Y-21794D01*
X46846Y-21766D01*
X46902Y-21738D01*
X47071Y-21738D01*
X47127Y-21766D01*
X47155Y-21794D01*
X47183Y-21851D01*
X47183Y-21935D01*
X46593Y-21035D02*
X47071Y-21035D01*
X47127Y-21007D01*
X47155Y-20979D01*
X47183Y-20923D01*
X47183Y-20810D01*
X47155Y-20754D01*
X47127Y-20726D01*
X47071Y-20698D01*
X46593Y-20698D01*
X47155Y-20445D02*
X47183Y-20360D01*
X47183Y-20220D01*
X47155Y-20163D01*
X47127Y-20135D01*
X47071Y-20107D01*
X47015Y-20107D01*
X46958Y-20135D01*
X46930Y-20163D01*
X46902Y-20220D01*
X46874Y-20332D01*
X46846Y-20388D01*
X46818Y-20417D01*
X46762Y-20445D01*
X46705Y-20445D01*
X46649Y-20417D01*
X46621Y-20388D01*
X46593Y-20332D01*
X46593Y-20192D01*
X46621Y-20107D01*
X46874Y-19657D02*
X46902Y-19573D01*
X46930Y-19545D01*
X46987Y-19517D01*
X47071Y-19517D01*
X47127Y-19545D01*
X47155Y-19573D01*
X47183Y-19629D01*
X47183Y-19854D01*
X46593Y-19854D01*
X46593Y-19657D01*
X46621Y-19601D01*
X46649Y-19573D01*
X46705Y-19545D01*
X46762Y-19545D01*
X46818Y-19573D01*
X46846Y-19601D01*
X46874Y-19657D01*
X46874Y-19854D01*
X47127Y-18476D02*
X47155Y-18504D01*
X47183Y-18589D01*
X47183Y-18645D01*
X47155Y-18729D01*
X47099Y-18785D01*
X47043Y-18814D01*
X46930Y-18842D01*
X46846Y-18842D01*
X46733Y-18814D01*
X46677Y-18785D01*
X46621Y-18729D01*
X46593Y-18645D01*
X46593Y-18589D01*
X46621Y-18504D01*
X46649Y-18476D01*
X46593Y-18111D02*
X46593Y-17998D01*
X46621Y-17942D01*
X46677Y-17886D01*
X46790Y-17857D01*
X46987Y-17857D01*
X47099Y-17886D01*
X47155Y-17942D01*
X47183Y-17998D01*
X47183Y-18111D01*
X47155Y-18167D01*
X47099Y-18223D01*
X46987Y-18251D01*
X46790Y-18251D01*
X46677Y-18223D01*
X46621Y-18167D01*
X46593Y-18111D01*
X47183Y-17604D02*
X46593Y-17604D01*
X47183Y-17267D01*
X46593Y-17267D01*
X46593Y-17070D02*
X47183Y-16873D01*
X46593Y-16676D01*
X46874Y-16480D02*
X46874Y-16283D01*
X47183Y-16198D02*
X47183Y-16480D01*
X46593Y-16480D01*
X46593Y-16198D01*
X47183Y-15608D02*
X46902Y-15805D01*
X47183Y-15945D02*
X46593Y-15945D01*
X46593Y-15720D01*
X46621Y-15664D01*
X46649Y-15636D01*
X46705Y-15608D01*
X46790Y-15608D01*
X46846Y-15636D01*
X46874Y-15664D01*
X46902Y-15720D01*
X46902Y-15945D01*
X46593Y-15439D02*
X46593Y-15102D01*
X47183Y-15270D02*
X46593Y-15270D01*
X46874Y-14905D02*
X46874Y-14708D01*
X47183Y-14624D02*
X47183Y-14905D01*
X46593Y-14905D01*
X46593Y-14624D01*
X47183Y-14033D02*
X46902Y-14230D01*
X47183Y-14370D02*
X46593Y-14370D01*
X46593Y-14145D01*
X46621Y-14089D01*
X46649Y-14061D01*
X46705Y-14033D01*
X46790Y-14033D01*
X46846Y-14061D01*
X46874Y-14089D01*
X46902Y-14145D01*
X46902Y-14370D01*
G54D12*
X35450Y-23050D02*
X35450Y-28600D01*
X29550Y-28600D02*
X29550Y-23050D01*
X35450Y-23050D02*
X29550Y-23050D01*
X35450Y-28600D02*
X29550Y-28600D01*
X43450Y-23050D02*
X43450Y-28600D01*
X37550Y-28600D02*
X37550Y-23050D01*
X43450Y-23050D02*
X37550Y-23050D01*
X43450Y-28600D02*
X37550Y-28600D01*
G54D13*
X38400Y-17550D02*
G75*
G03X38400Y-17550I-50J0D01*
G74*
G01*
X38800Y-17550D02*
X38400Y-17550D01*
X38400Y-17550D02*
X38400Y-16950D01*
X38400Y-16950D02*
X38800Y-16950D01*
X39200Y-16950D02*
X39600Y-16950D01*
X39600Y-16950D02*
X39600Y-17550D01*
X39600Y-17550D02*
X39200Y-17550D01*
X38950Y-15700D02*
G75*
G03X38950Y-15700I-50J0D01*
G74*
G01*
X38450Y-15700D02*
X38850Y-15700D01*
X38850Y-15700D02*
X38850Y-16300D01*
X38850Y-16300D02*
X38450Y-16300D01*
X38050Y-16300D02*
X37650Y-16300D01*
X37650Y-16300D02*
X37650Y-15700D01*
X37650Y-15700D02*
X38050Y-15700D01*
G54D14*
X41250Y-18120D02*
X42750Y-18120D01*
G54D15*
X42707Y-17100D02*
G75*
G03X42707Y-17100I-707J0D01*
G74*
G01*
G54D16*
X42750Y-18099D02*
G75*
G03X41249Y-18099I-750J999D01*
G74*
G01*
G54D17*
X42450Y-17100D02*
G75*
G03X42000Y-16650I-450J0D01*
G74*
G01*
X41550Y-17100D02*
G75*
G03X42000Y-17550I450J0D01*
G74*
G01*
X42650Y-17100D02*
G75*
G03X42000Y-16450I-650J0D01*
G74*
G01*
X41350Y-17100D02*
G75*
G03X42000Y-17750I650J0D01*
G74*
G01*
X42850Y-17100D02*
G75*
G03X42000Y-16250I-850J0D01*
G74*
G01*
X41150Y-17100D02*
G75*
G03X42000Y-17950I850J0D01*
G74*
G01*
G54D18*
X28500Y-21750D02*
X28500Y-11750D01*
X28500Y-11750D02*
X30500Y-11750D01*
X30500Y-11750D02*
X30500Y-21750D01*
X30500Y-21750D02*
X28500Y-21750D01*
X28500Y-18750D02*
X30500Y-18750D01*
X28500Y-14750D02*
X30500Y-14750D01*
G54D12*
X37050Y-12400D02*
X38500Y-12400D01*
X38500Y-12400D02*
X38500Y-11600D01*
X38500Y-11600D02*
X37050Y-11600D01*
X37050Y-13400D02*
X38500Y-13400D01*
X38500Y-13400D02*
X38500Y-12600D01*
X38500Y-12600D02*
X37050Y-12600D01*
X37050Y-14400D02*
X38500Y-14400D01*
X38500Y-14400D02*
X38500Y-13600D01*
X38500Y-13600D02*
X37050Y-13600D01*
X37050Y-15100D02*
X37050Y-10900D01*
X37050Y-10900D02*
X33050Y-10900D01*
X33050Y-10900D02*
X33050Y-15100D01*
X33050Y-15100D02*
X37050Y-15100D01*
X34900Y-20400D02*
X34100Y-20400D01*
X33950Y-20350D02*
X35100Y-20350D01*
X35200Y-20300D02*
X33800Y-20300D01*
X33650Y-20250D02*
X35350Y-20250D01*
X35450Y-20200D02*
X33550Y-20200D01*
X33500Y-20150D02*
X35500Y-20150D01*
X36450Y-18500D02*
G75*
G03X36450Y-18500I-1950J0D01*
G74*
G01*
X32450Y-20550D02*
X36550Y-20550D01*
X36550Y-20550D02*
X36550Y-16750D01*
X36550Y-16750D02*
X36250Y-16450D01*
X36250Y-16450D02*
X32750Y-16450D01*
X32750Y-16450D02*
X32450Y-16750D01*
X32450Y-16750D02*
X32450Y-20550D01*
X34500Y-16700D02*
X34500Y-17000D01*
X34350Y-16850D02*
X34650Y-16850D01*
G54D18*
X22500Y-22000D02*
X22500Y-18000D01*
X22000Y-22000D02*
X25000Y-22000D01*
X25000Y-22000D02*
X25000Y-18000D01*
X25000Y-18000D02*
X22000Y-18000D01*
X22000Y-18000D02*
X22000Y-22000D01*
G54D19*
X23400Y-26000D02*
G75*
G03X23400Y-26000I-900J0D01*
G74*
G01*
X23400Y-12500D02*
G75*
G03X23400Y-12500I-900J0D01*
G74*
G01*
X47400Y-12500D02*
G75*
G03X47400Y-12500I-900J0D01*
G74*
G01*
X47150Y-26000D02*
G75*
G03X47150Y-26000I-900J0D01*
G74*
G01*
G54D18*
X31142Y-26700D02*
X31571Y-26700D01*
X31657Y-26728D01*
X31714Y-26785D01*
X31742Y-26871D01*
X31742Y-26928D01*
X31742Y-26100D02*
X31742Y-26442D01*
X31742Y-26271D02*
X31142Y-26271D01*
X31228Y-26328D01*
X31285Y-26385D01*
X31314Y-26442D01*
X33142Y-27514D02*
X33628Y-27514D01*
X33685Y-27485D01*
X33714Y-27457D01*
X33742Y-27400D01*
X33742Y-27285D01*
X33714Y-27228D01*
X33685Y-27200D01*
X33628Y-27171D01*
X33142Y-27171D01*
X33714Y-26914D02*
X33742Y-26828D01*
X33742Y-26685D01*
X33714Y-26628D01*
X33685Y-26600D01*
X33628Y-26571D01*
X33571Y-26571D01*
X33514Y-26600D01*
X33485Y-26628D01*
X33457Y-26685D01*
X33428Y-26800D01*
X33400Y-26857D01*
X33371Y-26885D01*
X33314Y-26914D01*
X33257Y-26914D01*
X33200Y-26885D01*
X33171Y-26857D01*
X33142Y-26800D01*
X33142Y-26657D01*
X33171Y-26571D01*
X33428Y-26114D02*
X33457Y-26028D01*
X33485Y-26000D01*
X33542Y-25971D01*
X33628Y-25971D01*
X33685Y-26000D01*
X33714Y-26028D01*
X33742Y-26085D01*
X33742Y-26314D01*
X33142Y-26314D01*
X33142Y-26114D01*
X33171Y-26057D01*
X33200Y-26028D01*
X33257Y-26000D01*
X33314Y-26000D01*
X33371Y-26028D01*
X33400Y-26057D01*
X33428Y-26114D01*
X33428Y-26314D01*
X33571Y-25742D02*
X33571Y-25457D01*
X33742Y-25800D02*
X33142Y-25600D01*
X33742Y-25400D01*
X39142Y-26700D02*
X39571Y-26700D01*
X39657Y-26728D01*
X39714Y-26785D01*
X39742Y-26871D01*
X39742Y-26928D01*
X39200Y-26442D02*
X39171Y-26414D01*
X39142Y-26357D01*
X39142Y-26214D01*
X39171Y-26157D01*
X39200Y-26128D01*
X39257Y-26100D01*
X39314Y-26100D01*
X39400Y-26128D01*
X39742Y-26471D01*
X39742Y-26100D01*
X41142Y-27514D02*
X41628Y-27514D01*
X41685Y-27485D01*
X41714Y-27457D01*
X41742Y-27400D01*
X41742Y-27285D01*
X41714Y-27228D01*
X41685Y-27200D01*
X41628Y-27171D01*
X41142Y-27171D01*
X41714Y-26914D02*
X41742Y-26828D01*
X41742Y-26685D01*
X41714Y-26628D01*
X41685Y-26600D01*
X41628Y-26571D01*
X41571Y-26571D01*
X41514Y-26600D01*
X41485Y-26628D01*
X41457Y-26685D01*
X41428Y-26800D01*
X41400Y-26857D01*
X41371Y-26885D01*
X41314Y-26914D01*
X41257Y-26914D01*
X41200Y-26885D01*
X41171Y-26857D01*
X41142Y-26800D01*
X41142Y-26657D01*
X41171Y-26571D01*
X41428Y-26114D02*
X41457Y-26028D01*
X41485Y-26000D01*
X41542Y-25971D01*
X41628Y-25971D01*
X41685Y-26000D01*
X41714Y-26028D01*
X41742Y-26085D01*
X41742Y-26314D01*
X41142Y-26314D01*
X41142Y-26114D01*
X41171Y-26057D01*
X41200Y-26028D01*
X41257Y-26000D01*
X41314Y-26000D01*
X41371Y-26028D01*
X41400Y-26057D01*
X41428Y-26114D01*
X41428Y-26314D01*
X41571Y-25742D02*
X41571Y-25457D01*
X41742Y-25800D02*
X41142Y-25600D01*
X41742Y-25400D01*
G54D20*
X38967Y-17204D02*
X38901Y-17110D01*
X38854Y-17204D02*
X38854Y-17007D01*
X38929Y-17007D01*
X38948Y-17017D01*
X38957Y-17026D01*
X38967Y-17045D01*
X38967Y-17073D01*
X38957Y-17092D01*
X38948Y-17101D01*
X38929Y-17110D01*
X38854Y-17110D01*
X39154Y-17204D02*
X39042Y-17204D01*
X39098Y-17204D02*
X39098Y-17007D01*
X39079Y-17035D01*
X39060Y-17054D01*
X39042Y-17064D01*
X38746Y-17282D02*
X38868Y-17282D01*
X38803Y-17357D01*
X38831Y-17357D01*
X38849Y-17367D01*
X38859Y-17376D01*
X38868Y-17395D01*
X38868Y-17442D01*
X38859Y-17460D01*
X38849Y-17470D01*
X38831Y-17479D01*
X38774Y-17479D01*
X38756Y-17470D01*
X38746Y-17460D01*
X39056Y-17479D02*
X38943Y-17479D01*
X39000Y-17479D02*
X39000Y-17282D01*
X38981Y-17310D01*
X38962Y-17329D01*
X38943Y-17339D01*
X39178Y-17282D02*
X39197Y-17282D01*
X39215Y-17292D01*
X39225Y-17301D01*
X39234Y-17320D01*
X39243Y-17357D01*
X39243Y-17404D01*
X39234Y-17442D01*
X39225Y-17460D01*
X39215Y-17470D01*
X39197Y-17479D01*
X39178Y-17479D01*
X39159Y-17470D01*
X39150Y-17460D01*
X39140Y-17442D01*
X39131Y-17404D01*
X39131Y-17357D01*
X39140Y-17320D01*
X39150Y-17301D01*
X39159Y-17292D01*
X39178Y-17282D01*
X38217Y-16185D02*
X38207Y-16195D01*
X38179Y-16204D01*
X38160Y-16204D01*
X38132Y-16195D01*
X38113Y-16176D01*
X38104Y-16157D01*
X38095Y-16120D01*
X38095Y-16092D01*
X38104Y-16054D01*
X38113Y-16035D01*
X38132Y-16017D01*
X38160Y-16007D01*
X38179Y-16007D01*
X38207Y-16017D01*
X38217Y-16026D01*
X38292Y-16026D02*
X38301Y-16017D01*
X38320Y-16007D01*
X38367Y-16007D01*
X38386Y-16017D01*
X38395Y-16026D01*
X38404Y-16045D01*
X38404Y-16064D01*
X38395Y-16092D01*
X38282Y-16204D01*
X38404Y-16204D01*
X37926Y-15732D02*
X37945Y-15732D01*
X37963Y-15742D01*
X37973Y-15751D01*
X37982Y-15770D01*
X37992Y-15807D01*
X37992Y-15854D01*
X37982Y-15892D01*
X37973Y-15910D01*
X37963Y-15920D01*
X37945Y-15929D01*
X37926Y-15929D01*
X37907Y-15920D01*
X37898Y-15910D01*
X37888Y-15892D01*
X37879Y-15854D01*
X37879Y-15807D01*
X37888Y-15770D01*
X37898Y-15751D01*
X37907Y-15742D01*
X37926Y-15732D01*
X38076Y-15910D02*
X38085Y-15920D01*
X38076Y-15929D01*
X38067Y-15920D01*
X38076Y-15910D01*
X38076Y-15929D01*
X38273Y-15929D02*
X38160Y-15929D01*
X38217Y-15929D02*
X38217Y-15732D01*
X38198Y-15760D01*
X38179Y-15779D01*
X38160Y-15789D01*
X38442Y-15798D02*
X38442Y-15929D01*
X38357Y-15798D02*
X38357Y-15901D01*
X38367Y-15920D01*
X38386Y-15929D01*
X38414Y-15929D01*
X38432Y-15920D01*
X38442Y-15910D01*
X38601Y-15826D02*
X38536Y-15826D01*
X38536Y-15929D02*
X38536Y-15732D01*
X38629Y-15732D01*
G54D21*
X43621Y-17221D02*
X43321Y-17221D01*
X43321Y-17150D01*
X43335Y-17107D01*
X43364Y-17078D01*
X43392Y-17064D01*
X43450Y-17050D01*
X43492Y-17050D01*
X43550Y-17064D01*
X43578Y-17078D01*
X43607Y-17107D01*
X43621Y-17150D01*
X43621Y-17221D01*
X43621Y-16764D02*
X43621Y-16935D01*
X43621Y-16850D02*
X43321Y-16850D01*
X43364Y-16878D01*
X43392Y-16907D01*
X43407Y-16935D01*
X40621Y-17192D02*
X40621Y-17335D01*
X40321Y-17335D01*
X40464Y-17092D02*
X40464Y-16992D01*
X40621Y-16950D02*
X40621Y-17092D01*
X40321Y-17092D01*
X40321Y-16950D01*
X40621Y-16821D02*
X40321Y-16821D01*
X40321Y-16750D01*
X40335Y-16707D01*
X40364Y-16678D01*
X40392Y-16664D01*
X40450Y-16650D01*
X40492Y-16650D01*
X40550Y-16664D01*
X40578Y-16678D01*
X40607Y-16707D01*
X40621Y-16750D01*
X40621Y-16821D01*
G54D18*
X31367Y-16559D02*
X31367Y-16768D01*
X31951Y-16768D02*
X30835Y-16768D01*
X30835Y-16469D01*
X31951Y-15901D02*
X31951Y-16260D01*
X31951Y-16080D02*
X30835Y-16080D01*
X30995Y-16140D01*
X31101Y-16200D01*
X31154Y-16260D01*
X27380Y-17297D02*
X27380Y-17564D01*
X27904Y-17564D02*
X26904Y-17564D01*
X26904Y-17183D01*
X26904Y-16878D02*
X27714Y-16878D01*
X27809Y-16840D01*
X27857Y-16802D01*
X27904Y-16726D01*
X27904Y-16573D01*
X27857Y-16497D01*
X27809Y-16459D01*
X27714Y-16421D01*
X26904Y-16421D01*
X27857Y-16078D02*
X27904Y-15964D01*
X27904Y-15773D01*
X27857Y-15697D01*
X27809Y-15659D01*
X27714Y-15621D01*
X27619Y-15621D01*
X27523Y-15659D01*
X27476Y-15697D01*
X27428Y-15773D01*
X27380Y-15926D01*
X27333Y-16002D01*
X27285Y-16040D01*
X27190Y-16078D01*
X27095Y-16078D01*
X27000Y-16040D01*
X26952Y-16002D01*
X26904Y-15926D01*
X26904Y-15735D01*
X26952Y-15621D01*
X27380Y-15278D02*
X27380Y-15011D01*
X27904Y-14897D02*
X27904Y-15278D01*
X26904Y-15278D01*
X26904Y-14897D01*
G54D17*
X32102Y-13380D02*
X32507Y-13380D01*
X32554Y-13357D01*
X32578Y-13333D01*
X32602Y-13285D01*
X32602Y-13190D01*
X32578Y-13142D01*
X32554Y-13119D01*
X32507Y-13095D01*
X32102Y-13095D01*
X32602Y-12595D02*
X32602Y-12880D01*
X32602Y-12738D02*
X32102Y-12738D01*
X32173Y-12785D01*
X32221Y-12833D01*
X32245Y-12880D01*
X36402Y-13880D02*
X36402Y-13547D01*
X36902Y-13761D01*
X36616Y-13285D02*
X36592Y-13333D01*
X36569Y-13357D01*
X36521Y-13380D01*
X36497Y-13380D01*
X36450Y-13357D01*
X36426Y-13333D01*
X36402Y-13285D01*
X36402Y-13190D01*
X36426Y-13142D01*
X36450Y-13119D01*
X36497Y-13095D01*
X36521Y-13095D01*
X36569Y-13119D01*
X36592Y-13142D01*
X36616Y-13190D01*
X36616Y-13285D01*
X36640Y-13333D01*
X36664Y-13357D01*
X36711Y-13380D01*
X36807Y-13380D01*
X36854Y-13357D01*
X36878Y-13333D01*
X36902Y-13285D01*
X36902Y-13190D01*
X36878Y-13142D01*
X36854Y-13119D01*
X36807Y-13095D01*
X36711Y-13095D01*
X36664Y-13119D01*
X36640Y-13142D01*
X36616Y-13190D01*
X36402Y-12785D02*
X36402Y-12738D01*
X36426Y-12690D01*
X36450Y-12666D01*
X36497Y-12642D01*
X36592Y-12619D01*
X36711Y-12619D01*
X36807Y-12642D01*
X36854Y-12666D01*
X36878Y-12690D01*
X36902Y-12738D01*
X36902Y-12785D01*
X36878Y-12833D01*
X36854Y-12857D01*
X36807Y-12880D01*
X36711Y-12904D01*
X36592Y-12904D01*
X36497Y-12880D01*
X36450Y-12857D01*
X36426Y-12833D01*
X36402Y-12785D01*
X36402Y-12166D02*
X36402Y-12404D01*
X36640Y-12428D01*
X36616Y-12404D01*
X36592Y-12357D01*
X36592Y-12238D01*
X36616Y-12190D01*
X36640Y-12166D01*
X36688Y-12142D01*
X36807Y-12142D01*
X36854Y-12166D01*
X36878Y-12190D01*
X36902Y-12238D01*
X36902Y-12357D01*
X36878Y-12404D01*
X36854Y-12428D01*
G54D22*
X32260Y-18532D02*
X32270Y-18542D01*
X32279Y-18570D01*
X32279Y-18589D01*
X32270Y-18617D01*
X32251Y-18636D01*
X32232Y-18645D01*
X32195Y-18654D01*
X32167Y-18654D01*
X32129Y-18645D01*
X32110Y-18636D01*
X32092Y-18617D01*
X32082Y-18589D01*
X32082Y-18570D01*
X32092Y-18542D01*
X32101Y-18532D01*
X32279Y-18345D02*
X32279Y-18457D01*
X32279Y-18401D02*
X32082Y-18401D01*
X32110Y-18420D01*
X32129Y-18439D01*
X32139Y-18457D01*
G54D18*
X25742Y-20442D02*
X25142Y-20442D01*
X25142Y-20214D01*
X25171Y-20157D01*
X25200Y-20128D01*
X25257Y-20100D01*
X25342Y-20100D01*
X25400Y-20128D01*
X25428Y-20157D01*
X25457Y-20214D01*
X25457Y-20442D01*
X25742Y-19528D02*
X25742Y-19871D01*
X25742Y-19700D02*
X25142Y-19700D01*
X25228Y-19757D01*
X25285Y-19814D01*
X25314Y-19871D01*
X21742Y-21900D02*
X21742Y-22242D01*
X21742Y-22071D02*
X21142Y-22071D01*
X21228Y-22128D01*
X21285Y-22185D01*
X21314Y-22242D01*
X21200Y-21671D02*
X21171Y-21642D01*
X21142Y-21585D01*
X21142Y-21442D01*
X21171Y-21385D01*
X21200Y-21357D01*
X21257Y-21328D01*
X21314Y-21328D01*
X21400Y-21357D01*
X21742Y-21700D01*
X21742Y-21328D01*
X21142Y-21157D02*
X21742Y-20957D01*
X21142Y-20757D01*
X21742Y-20099D02*
X21142Y-20099D01*
X21742Y-19814D02*
X21142Y-19814D01*
X21742Y-19471D01*
X21142Y-19471D01*
X21742Y-19185D02*
X21142Y-19185D01*
X21142Y-18957D01*
X21171Y-18900D01*
X21200Y-18871D01*
X21257Y-18842D01*
X21342Y-18842D01*
X21400Y-18871D01*
X21428Y-18900D01*
X21457Y-18957D01*
X21457Y-19185D01*
X21142Y-18585D02*
X21628Y-18585D01*
X21685Y-18557D01*
X21714Y-18528D01*
X21742Y-18471D01*
X21742Y-18357D01*
X21714Y-18300D01*
X21685Y-18271D01*
X21628Y-18242D01*
X21142Y-18242D01*
X21142Y-18042D02*
X21142Y-17700D01*
X21742Y-17871D02*
X21142Y-17871D01*
G54D16*
M02*
