G04 (created by PCBNEW (2013-07-07 BZR 4022)-stable) date 6/6/2016 3:41:11 PM*
%MOIN*%
G04 Gerber Fmt 3.4, Leading zero omitted, Abs format*
%FSLAX34Y34*%
G01*
G70*
G90*
G04 APERTURE LIST*
%ADD10C,0.00590551*%
%ADD11C,0.0591*%
%ADD12R,0.0591X0.0591*%
%ADD13C,0.1181*%
%ADD14R,0.055X0.035*%
%ADD15C,0.066*%
%ADD16C,0.15*%
%ADD17R,0.35X0.42*%
%ADD18R,0.09X0.07*%
%ADD19R,0.0945X0.1575*%
%ADD20R,0.1X0.1*%
%ADD21C,0.1*%
%ADD22C,0.16*%
%ADD23C,0.035*%
%ADD24C,0.01*%
G04 APERTURE END LIST*
G54D10*
G54D11*
X33900Y-23500D03*
X32900Y-23500D03*
X32100Y-23500D03*
G54D12*
X31100Y-23500D03*
G54D13*
X35100Y-24550D03*
X29700Y-24550D03*
G54D11*
X41900Y-23500D03*
X40900Y-23500D03*
X40100Y-23500D03*
G54D12*
X39100Y-23500D03*
G54D13*
X43100Y-24550D03*
X37700Y-24550D03*
G54D14*
X42500Y-11125D03*
X42500Y-11875D03*
X40500Y-11125D03*
X40500Y-11875D03*
G54D15*
X41500Y-14500D03*
X41500Y-15500D03*
G54D16*
X29500Y-19500D03*
X29500Y-17500D03*
X29500Y-13500D03*
X29500Y-11500D03*
G54D17*
X34550Y-12000D03*
G54D18*
X38000Y-12000D03*
X38000Y-13000D03*
X38000Y-11000D03*
G54D19*
X34500Y-16425D03*
X34500Y-19575D03*
G54D20*
X23500Y-17500D03*
G54D21*
X23500Y-19500D03*
G54D22*
X22500Y-26000D03*
X22500Y-11000D03*
X47500Y-11000D03*
X47500Y-26000D03*
G54D23*
X34550Y-12000D03*
X34500Y-21500D03*
X40500Y-12750D03*
G54D24*
X23500Y-17500D02*
X29500Y-17500D01*
X29500Y-17500D02*
X29500Y-19500D01*
X34500Y-19575D02*
X34500Y-21500D01*
X38000Y-12000D02*
X40375Y-12000D01*
X40500Y-12125D02*
X40500Y-12750D01*
X40375Y-12000D02*
X40500Y-12125D01*
X42500Y-11875D02*
X42500Y-13500D01*
X42500Y-13500D02*
X41500Y-14500D01*
X39100Y-22500D02*
X39000Y-22500D01*
X31100Y-22650D02*
X31250Y-22500D01*
X31250Y-22500D02*
X39000Y-22500D01*
X31100Y-22650D02*
X31100Y-23500D01*
X39100Y-20500D02*
X39250Y-20500D01*
X39250Y-20500D02*
X39500Y-20250D01*
X42500Y-11125D02*
X43625Y-11125D01*
X39100Y-20500D02*
X39100Y-22500D01*
X39100Y-22500D02*
X39100Y-23500D01*
X43750Y-16000D02*
X39500Y-20250D01*
X43750Y-11250D02*
X43750Y-16000D01*
X43625Y-11125D02*
X43750Y-11250D01*
X38000Y-11000D02*
X40375Y-11000D01*
X40375Y-11000D02*
X40500Y-11125D01*
X40500Y-11125D02*
X42500Y-11125D01*
X29500Y-13500D02*
X29500Y-11500D01*
X34500Y-16425D02*
X37925Y-16425D01*
X38000Y-16350D02*
X38000Y-13000D01*
X37925Y-16425D02*
X38000Y-16350D01*
X29500Y-13500D02*
X31500Y-13500D01*
X32175Y-16425D02*
X34500Y-16425D01*
X31750Y-16000D02*
X32175Y-16425D01*
X31750Y-13750D02*
X31750Y-16000D01*
X31500Y-13500D02*
X31750Y-13750D01*
M02*
