M48
;DRILL file {Pcbnew (2013-07-07 BZR 4022)-stable} date 6/7/2016 7:46:05 AM
;FORMAT={-:-/ absolute / inch / decimal}
FMAT,2
INCH,TZ
T1C0.025
T2C0.032
T3C0.039
T4C0.055
T5C0.060
T6C0.091
T7C0.120
%
G90
G05
M72
T1
X3.45Y-2.15
X3.455Y-1.2
X3.75Y-1.675
X3.925Y-1.3
T2
X4.2Y-1.65
X4.2Y-1.75
T3
X3.11Y-2.35
X3.21Y-2.35
X3.29Y-2.35
X3.39Y-2.35
X3.91Y-2.35
X4.01Y-2.35
X4.09Y-2.35
X4.19Y-2.35
T4
X2.95Y-1.275
X2.95Y-1.475
X2.95Y-1.875
X2.95Y-2.075
T5
X2.35Y-1.9
X2.35Y-2.1
T6
X2.97Y-2.455
X3.51Y-2.455
X3.77Y-2.455
X4.31Y-2.455
T7
X2.25Y-1.25
X2.25Y-2.6
X4.625Y-2.6
X4.65Y-1.25
T0
M30
